<?xml version="1.0" encoding="utf-8"?>
<!-- Generator: Adobe Illustrator 24.2.0, SVG Export Plug-In . SVG Version: 6.00 Build 0)  -->
<svg version="1.1" id="Layer_1" xmlns="http://www.w3.org/2000/svg" xmlns:xlink="http://www.w3.org/1999/xlink" x="0px" y="0px"
	 viewBox="0 0 41 39.8" style="enable-background:new 0 0 41 39.8;" xml:space="preserve">
<style type="text/css">
	.st0{fill:#FBFDFF;}
</style>
<g>
	<path class="st0" d="M31.2,37.7c-1.6,0-3.2,0-4.7,0c-0.3,0-0.6-0.1-0.8-0.3c-0.2-0.3,0-0.6,0.2-0.8c0.2-0.3,0.5-0.5,0.7-0.8
		c1-1.5,1.1-3,0.4-4.6c-0.2-0.5-0.5-0.9-1.2-1.1c-2.6-0.7-3.2-3.3-2.1-5.1c0.4-0.6,0.9-1.1,1.6-1.3c0.5-0.2,0.8-0.4,1.2-0.8
		c0.3-0.3,0.7-0.5,1-0.8c0.1-0.1,0.2-0.2,0.2-0.3c0.6-2.1,3.3-3,5.1-2.1c1,0.5,1.7,1.1,2,2.2c0,0.1,0.2,0.3,0.3,0.4
		c0.2,0.1,0.4,0.2,0.6,0.4c0.4,0.7,1.2,0.9,1.8,1.3c1.7,0.9,2.4,3,1.2,4.7c-0.6,0.8-1.4,1.3-2.4,1.5c-0.2,0-0.4,0.2-0.5,0.4
		c-0.5,0.8-0.9,1.7-0.9,2.7c0,1.3,0.7,2.2,1.4,3.1c0.1,0.1,0.3,0.3,0.4,0.4c0.2,0.4,0,0.8-0.4,0.9c-0.2,0-0.3,0-0.5,0
		C34.3,37.7,32.8,37.7,31.2,37.7z M34.4,30.4c-0.2,0.2-0.5,0.3-0.7,0.5c-0.9,0.7-1.8,1.4-2.6,2c-0.3,0.3-0.8,0.2-1-0.1
		c-0.3-0.5-0.6-0.9-0.9-1.4c-0.3-0.4-0.5-0.8-0.8-1.2c-0.1-0.1-0.3-0.1-0.4-0.2c0,0-0.1,0.1-0.1,0.1c1.4,2.2,1.2,4.3-0.3,6.3
		c2.5,0,4.9,0,7.3,0c-0.3-0.5-0.6-0.9-0.8-1.4c-0.5-1.4-0.6-2.8,0.2-4.2C34.3,30.8,34.4,30.6,34.4,30.4
		C34.5,30.4,34.5,30.4,34.4,30.4C34.5,30.4,34.5,30.4,34.4,30.4C34.5,30.4,34.4,30.4,34.4,30.4z M35.5,29.2c1.3,0,2.5-1.1,2.6-2.3
		c0.1-1.1-0.8-2.1-1.8-2.3c-0.4-0.1-0.8-0.2-1-0.6c-0.3-0.5-0.7-0.9-1.3-1.1c-0.1-0.1-0.3-0.3-0.3-0.5c-0.1-0.6-0.4-1.1-0.9-1.5
		c-1.2-0.9-3.5-0.5-3.9,1.3c-0.1,0.3-0.2,0.5-0.5,0.7c-0.4,0.3-0.8,0.5-1.1,0.9c-0.3,0.4-0.5,0.6-1,0.7c-1.7,0.3-2.4,2.2-1.4,3.5
		c0.8,1,2.3,1.2,3.3,0.6c0.5-0.3,0.7-0.2,1.2,0.2c0.4,0.3,0.8,0.6,1.3,0.7c1,0.3,1.8-0.1,2.5-0.8c0.3-0.3,0.6-0.3,0.9-0.1
		C34.6,28.9,35.1,29,35.5,29.2z M31.9,30.8c-0.6,0-1.1-0.1-1.7-0.1c0.2,0.3,0.4,0.6,0.6,1C31.1,31.4,31.5,31.1,31.9,30.8z"/>
	<path class="st0" d="M2.5,12.1c0.2-0.9-0.2-1.5-0.9-2C1.3,9.9,1.1,9.7,0.9,9.4c-0.3-0.3-0.3-0.6,0-0.9c0.4-0.4,0.9-0.8,1.3-1.3
		c0.1-0.2,0.2-0.4,0.3-0.6c0-0.5,0-0.9,0-1.4c0-0.6,0.1-0.8,0.8-0.9C4,4.3,4.7,4.1,5.4,4C5.8,4,6.2,3.8,6.5,3.5
		c0.4-0.4,0.8-0.8,1.2-1.1c0.3-0.3,0.6-0.2,1,0.1C9,2.7,9.4,2.9,9.6,3.3C10.2,4,11,4,11.8,4.2c0.4,0.1,0.8,0.1,1.3,0.2
		c0.5,0.1,0.7,0.3,0.7,0.8c0,0.1,0,0.1,0,0.2c0,1.9,0,1.9,1.5,3c0.5,0.4,0.5,0.8,0,1.2c-0.5,0.4-0.9,0.8-1.4,1.2
		c-0.1,0.1-0.1,0.3-0.1,0.4c0,0.5,0,1,0,1.6c0,0.4-0.2,0.7-0.6,0.8c-0.8,0.2-1.7,0.3-2.5,0.5c-0.1,0-0.3,0.1-0.4,0.2
		c-0.5,0.4-0.9,0.9-1.4,1.3C8.3,16,8,16,7.6,15.6c-0.4-0.4-0.8-0.8-1.3-1.2c-0.2-0.2-0.4-0.3-0.7-0.3c-0.7-0.2-1.5-0.3-2.2-0.4
		c-0.9-0.2-0.9-0.2-0.9-1.1C2.5,12.4,2.5,12.2,2.5,12.1z M14.1,9c-0.4-0.4-0.9-0.8-1.2-1.2c-0.2-0.2-0.3-0.4-0.4-0.7
		c-0.1-0.4,0-0.9,0-1.3c0-0.3-0.1-0.5-0.4-0.5c-0.6-0.1-1.1-0.2-1.7-0.3C9.9,5,9.5,4.8,9.1,4.4c-0.3-0.3-0.6-0.6-1-0.9
		C7.9,3.7,7.8,3.9,7.6,4.1c-0.6,0.5-1,1-1.9,1.1c-0.7,0-1.3,0.2-2,0.4c0,0.4,0,0.8,0,1.1c0.1,0.7-0.2,1.2-0.7,1.6
		C2.8,8.5,2.5,8.7,2.2,9c0.3,0.2,0.5,0.4,0.7,0.6c0.5,0.5,1.1,0.9,0.9,1.8c-0.1,0.4,0,0.8,0,1.2c0.5,0.1,1.1,0.2,1.6,0.3
		C6,13,6.7,13,7.2,13.7c0.2,0.3,0.6,0.5,1,0.8c0.3-0.3,0.6-0.6,0.9-0.9c0.4-0.4,0.8-0.6,1.3-0.7c0.6-0.1,1.1-0.2,1.7-0.3
		c0.3,0,0.5-0.1,0.4-0.5c0-0.4,0-0.9,0-1.3c0-0.2,0.1-0.4,0.2-0.6C13.2,9.9,13.6,9.5,14.1,9z"/>
	<path class="st0" d="M16.7,28.1c-0.3,0.3-0.6,0.5-0.9,0.8c-0.3-0.3-0.6-0.5-0.9-0.8c-1-1-2.5-1-3.6,0c-1.3,1.2-3.5,1.3-4.9,0.2
		C6,28,5.5,27.6,5,27.5c-0.9-0.3-1.7,0.1-2.4,0.7c0,0,0,0-0.1,0.1C1.7,29,1.7,29,0.9,28.1c1.4-1.7,3.3-2.5,5.4-1.4
		c0.4,0.2,0.7,0.6,1.1,0.8c1,0.6,2.1,0.5,3-0.2c0.8-0.7,1.7-1.1,2.7-1.1c1,0,1.8,0.3,2.5,1C16,27.5,16.3,27.8,16.7,28.1z"/>
	<path class="st0" d="M23.8,32.4c-0.8,1-0.8,1-1.6,0.2c-1.1-1.1-2.4-1.2-3.6-0.2c-1,0.8-2.1,1.3-3.4,1c-0.7-0.1-1.4-0.4-2-1
		c-0.9-0.9-2.5-0.9-3.4,0c-0.3,0.3-0.6,0.6-1,0.9C8.6,33,8.3,32.7,8,32.4c0.9-0.9,1.9-1.8,3.2-1.9c1.2-0.1,2.2,0.3,3,1.1
		c1,0.9,2.4,0.9,3.4-0.1c1.4-1.3,3.9-1.3,5.2,0C23.1,31.9,23.4,32.1,23.8,32.4z"/>
	<path class="st0" d="M18.6,24.3c0,0.1,0,0.1-0.1,0.1c-0.3,0.2-0.5,0.4-0.8,0.7c-0.3-0.3-0.6-0.5-0.9-0.8c-1-1-2.5-1-3.5-0.1
		c-1.3,1.2-3.3,1.4-4.8,0.4c-0.5-0.3-0.9-0.7-1.5-0.9c-1-0.4-1.9-0.1-2.6,0.6c-0.3,0.3-0.5,0.5-0.9,0.8c-0.3-0.3-0.5-0.6-0.7-0.8
		c1.1-1.6,2.9-2.3,4.8-1.6c0.5,0.2,0.9,0.5,1.3,0.8c1,0.8,2.4,0.8,3.4,0c1.6-1.5,3.9-1.4,5.5,0.1C18.1,23.8,18.4,24.1,18.6,24.3z"/>
	<path class="st0" d="M27.6,15.8c-1.5,0-2.5-1.2-2.5-2.4c0-0.7,0.5-1.3,1-1.8c0.3-0.4,0.6-0.8,1-1.2c0.4-0.4,0.8-0.4,1.2,0
		c0.5,0.6,1.1,1.2,1.6,1.9c0.6,0.7,0.4,2.1-0.2,2.6C28.8,15.6,28.5,15.8,27.6,15.8z M27.7,11.6c-0.4,0.5-0.8,1-1.1,1.5
		c-0.3,0.5,0,1.1,0.4,1.4c0.5,0.3,1.3,0.2,1.7-0.2c0.3-0.3,0.3-1,0-1.4C28.4,12.5,28.1,12.1,27.7,11.6z"/>
	<path class="st0" d="M24.1,20.4c-1.7,0-3-1.4-2.6-2.8c0.1-0.3,0.3-0.6,0.5-0.8c0.4-0.6,0.9-1.1,1.4-1.7c0.4-0.5,0.8-0.5,1.2,0
		c0.6,0.7,1.1,1.4,1.6,2.2c0.4,0.6,0.3,1.2,0,1.8C25.7,20,24.9,20.3,24.1,20.4z M23.9,16.2c-0.3,0.4-0.5,0.7-0.8,1
		c-0.4,0.4-0.5,0.7-0.3,1.2c0.2,0.5,0.6,0.7,1.1,0.8c0.9,0.1,1.6-0.7,1.3-1.4C24.9,17.2,24.4,16.7,23.9,16.2z"/>
	<path class="st0" d="M19.9,15.8c-0.6,0.1-1.8-0.7-2-1.4c-0.3-0.8-0.2-1.9,0.6-2.6c0.4-0.4,0.7-0.9,1.1-1.4c0.4-0.5,0.8-0.4,1.2,0.1
		c0.4,0.5,0.8,1,1.2,1.5c0.6,0.8,0.8,1.6,0.3,2.5C22,15.4,21.2,15.8,19.9,15.8z M20.2,11.7c-0.2,0.2-0.4,0.4-0.6,0.7
		c-0.2,0.2-0.4,0.4-0.5,0.7c-0.3,0.5-0.2,1.1,0.3,1.4c0.4,0.3,1.3,0.3,1.7,0c0.4-0.4,0.5-1,0.2-1.5C20.9,12.5,20.6,12.1,20.2,11.7z"
		/>
	<path class="st0" d="M31.3,21.1c1,0,1.7,0.7,1.7,1.7c-0.4,0-0.9,0.1-1.1-0.1C31.4,22.3,31,21.8,31.3,21.1z"/>
	<path class="st0" d="M37.3,26.9c0.1,0.9-0.7,1.6-1.7,1.6C35.3,27.4,36.2,26.5,37.3,26.9z"/>
	<path class="st0" d="M8.7,13c-2.2,0-4.1-1-4.7-2.8C3.5,8.8,4,7,5.2,6.1C7,4.7,8.8,4.6,10.7,5.8c1.8,1.1,2.4,3.4,1.2,5.3
		C11.1,12.4,9.8,13,8.7,13z M8.1,11.9c1.6,0.1,3.1-1.3,3.1-2.8c0-1.6-1.5-2.9-3.1-2.9C6.3,6.2,5,7.5,5,9C5,10.6,6.3,11.9,8.1,11.9z"
		/>
</g>
</svg>
