<?xml version="1.0" encoding="utf-8"?>
<!-- Generator: Adobe Illustrator 24.2.0, SVG Export Plug-In . SVG Version: 6.00 Build 0)  -->
<svg version="1.1" id="Layer_1" xmlns="http://www.w3.org/2000/svg" xmlns:xlink="http://www.w3.org/1999/xlink" x="0px" y="0px"
	 viewBox="0 0 41 39.8" style="enable-background:new 0 0 41 39.8;" xml:space="preserve">
<style type="text/css">
	.st0{fill:none;stroke:#FFFFFF;stroke-width:0.499;}
	.st1{fill:#FFFFFF;}
</style>
<g>
	<path class="st0" d="M32.9,10.6c-4.1-0.3-7.9-2.2-10.7-5.2c-0.5-0.6-1.4-0.7-2-0.2c-0.1,0-0.1,0.1-0.2,0.2c-2.8,3-6.6,4.9-10.7,5.2
		C8.6,10.7,8,11.3,8,12.1v3.7c0,0.4,0,0.9,0,1.3c0.2-0.1,0.5-0.2,0.8-0.4c0-0.3,0-0.7,0-1v-3.7c0-0.4,0.3-0.7,0.6-0.7
		c4.3-0.3,8.3-2.3,11.2-5.5c0.2-0.3,0.7-0.3,1-0.1c0,0,0.1,0.1,0.1,0.1c2.9,3.2,6.9,5.1,11.2,5.5c0.4,0,0.6,0.3,0.6,0.7v3.7
		c0,7.4-4.5,14.7-12,19.5c-0.2,0.2-0.5,0.2-0.8,0c-1-0.6-1.9-1.3-2.8-2c-0.2,0.2-0.4,0.3-0.7,0.4c1,0.8,2,1.6,3.1,2.2
		c0.5,0.3,1.1,0.3,1.6,0c7.2-4.6,12.3-12,12.3-20.1v-3.7C34.3,11.3,33.7,10.7,32.9,10.6L32.9,10.6z"/>
	<path class="st1" d="M13.3,24.7c0,0.3-0.2,0.5-0.5,0.5s-0.5-0.2-0.5-0.5c0-0.3,0.2-0.5,0.5-0.5C13.1,24.2,13.3,24.4,13.3,24.7
		L13.3,24.7z"/>
	<path class="st1" d="M14.1,26.4c0,0.3-0.2,0.5-0.5,0.5s-0.5-0.2-0.5-0.5c0-0.3,0.2-0.5,0.5-0.5C13.9,25.9,14.1,26.2,14.1,26.4
		L14.1,26.4z"/>
	<path class="st1" d="M11.9,26.1c-0.3,0-0.5,0.2-0.5,0.5c0,0.3,0.2,0.5,0.5,0.5c0.3,0,0.5-0.2,0.5-0.5
		C12.4,26.3,12.2,26.1,11.9,26.1L11.9,26.1z"/>
	<path class="st1" d="M16.1,29.9c-0.2,0-0.3,0-0.5,0.1l-1-1.6c0.6-0.4,1-1,1.3-1.7l1.2,0.4c0,0.1,0,0.1,0,0.2c0,0.8,0.6,1.4,1.4,1.4
		c0.8,0,1.4-0.6,1.4-1.4c0-0.8-0.6-1.4-1.4-1.4c-0.4,0-0.9,0.2-1.1,0.5l-1.3-0.4c0.1-0.5,0.1-1.1,0-1.6l1.6-0.5
		c0.4,0.6,1.1,0.7,1.7,0.3c0.6-0.4,0.7-1.1,0.3-1.7c-0.4-0.6-1.1-0.7-1.7-0.3c-0.3,0.2-0.5,0.6-0.5,1l-1.6,0.5
		c-0.2-0.5-0.5-0.9-0.8-1.2l1.5-1.7c0.2,0.1,0.5,0.2,0.7,0.2c0.9,0,1.6-0.7,1.6-1.6c0-0.9-0.7-1.6-1.6-1.6c-0.9,0-1.6,0.7-1.6,1.6
		c0,0.3,0.1,0.6,0.3,0.9l-1.5,1.7c-0.6-0.4-1.3-0.7-2-0.7l0-0.9c0.7-0.2,1-1,0.8-1.7c-0.2-0.7-1-1-1.7-0.8c-0.7,0.2-1,1-0.8,1.7
		c0.1,0.4,0.5,0.7,0.9,0.8l0,0.9c-0.7,0.1-1.4,0.3-2,0.8l-1-1.1c0.5-0.8,0.3-1.8-0.4-2.3C7.5,18.1,6.5,18.3,6,19
		c-0.5,0.8-0.3,1.8,0.4,2.3c0.5,0.3,1.2,0.4,1.7,0.1l1,1.1c-0.6,0.7-1,1.5-1.1,2.4l-0.8,0c-0.2-0.8-1-1.2-1.7-1
		c-0.8,0.2-1.2,1-1,1.7c0.2,0.8,1,1.2,1.7,1c0.5-0.1,0.9-0.5,1-0.9l0.9,0c0.1,0.7,0.3,1.3,0.7,1.8l-1.7,1.3
		c-0.3-0.2-0.6-0.3-0.9-0.3c-0.8,0-1.5,0.7-1.5,1.5c0,0.8,0.7,1.5,1.5,1.5c0.8,0,1.5-0.7,1.5-1.5c0-0.2,0-0.4-0.1-0.6L9.3,28
		c0.5,0.5,1.2,0.9,1.9,1.1l-0.3,1.2c-0.9,0-1.7,0.8-1.7,1.7c0,0.9,0.8,1.7,1.7,1.7c0.9,0,1.7-0.8,1.7-1.7c0-0.6-0.4-1.2-1-1.5
		l0.3-1.2c0.1,0,0.2,0,0.2,0c0.6,0,1.3-0.2,1.9-0.5l1,1.6c-0.2,0.2-0.3,0.6-0.3,0.9c0,0.8,0.6,1.4,1.4,1.4c0.8,0,1.4-0.6,1.4-1.4
		C17.5,30.5,16.9,29.9,16.1,29.9C16.1,29.9,16.1,29.9,16.1,29.9L16.1,29.9z M18.5,26.6c0.4,0,0.6,0.3,0.6,0.6c0,0.4-0.3,0.6-0.6,0.6
		c-0.4,0-0.6-0.3-0.6-0.6c0,0,0,0,0,0C17.9,26.9,18.2,26.6,18.5,26.6L18.5,26.6z M18.7,22.7c0.2,0,0.4,0.2,0.4,0.4
		c0,0.2-0.2,0.4-0.4,0.4c-0.2,0-0.4-0.2-0.4-0.4C18.3,22.9,18.5,22.7,18.7,22.7L18.7,22.7z M6.2,30.6c-0.4,0-0.7-0.3-0.7-0.7
		s0.3-0.7,0.7-0.7c0.4,0,0.7,0.3,0.7,0.7C6.9,30.3,6.6,30.6,6.2,30.6L6.2,30.6z M10.8,32.9c-0.5,0-0.9-0.4-0.9-0.9
		c0-0.5,0.4-0.9,0.9-0.9c0.5,0,0.9,0.4,0.9,0.9C11.8,32.5,11.3,32.9,10.8,32.9L10.8,32.9z M17.2,18.4c0.5,0,0.8,0.4,0.8,0.8
		c0,0.5-0.4,0.8-0.8,0.8c-0.5,0-0.8-0.4-0.8-0.8C16.4,18.8,16.8,18.4,17.2,18.4L17.2,18.4z M11.5,19c0-0.3,0.2-0.5,0.5-0.5
		c0.3,0,0.5,0.2,0.5,0.5c0,0.3-0.2,0.5-0.5,0.5C11.7,19.5,11.5,19.3,11.5,19L11.5,19z M6.6,20c0-0.5,0.4-0.8,0.8-0.8
		c0.5,0,0.8,0.4,0.8,0.8s-0.4,0.8-0.8,0.8C6.9,20.8,6.6,20.4,6.6,20L6.6,20z M5.9,25.8c-0.4,0-0.6-0.3-0.6-0.6
		c0-0.4,0.3-0.6,0.6-0.6c0.4,0,0.6,0.3,0.6,0.6c0,0,0,0,0,0C6.6,25.5,6.3,25.8,5.9,25.8L5.9,25.8z M8.9,25.2c0-1.8,1.5-3.3,3.3-3.3
		c1.8,0,3.3,1.5,3.3,3.3c0,1.8-1.5,3.3-3.3,3.3C10.3,28.5,8.9,27,8.9,25.2L8.9,25.2z M16.1,31.9c-0.4,0-0.6-0.3-0.6-0.6
		c0-0.4,0.3-0.6,0.6-0.6c0.4,0,0.6,0.3,0.6,0.6C16.8,31.7,16.5,31.9,16.1,31.9L16.1,31.9z"/>
</g>
</svg>
