<?xml version="1.0" encoding="utf-8"?>
<!-- Generator: Adobe Illustrator 27.0.0, SVG Export Plug-In . SVG Version: 6.00 Build 0)  -->
<svg version="1.1" id="Layer_1" xmlns="http://www.w3.org/2000/svg" xmlns:xlink="http://www.w3.org/1999/xlink" x="0px" y="0px"
	 viewBox="0 0 935.7 185.6" style="enable-background:new 0 0 935.7 185.6;" xml:space="preserve">
<style type="text/css">
	.st0{fill:#941E27;}
</style>
<path class="st0" d="M294.5,128.5c0-32,0-63.6,0-95.5c6.8,0,13.3,0,20.3,0c0,26.6,0,53,0,79.9c13.1,0,25.8,0,39.1,0
	c-0.7,5.2-1.3,10.4-2,15.6C332.6,128.5,313.9,128.5,294.5,128.5z"/>
<path class="st0" d="M212,126.7c-9.2,3.1-17.7,6.1-27.2,3.9c-9-2.1-14.9-8.5-15-17.9c-0.2-11.8,0-23.7,0.1-35.5c0-1.6,0-3.3,0-5.4
	c-3.5,0-6.7,0-10.2,0c0-4.1,0-7.8,0-11.8c3.2-0.6,6.4-1.2,10.3-1.9c0-3.9,0-8,0-12.3c6.8-1,13-1.9,19.7-2.9c0,5.1,0,10,0,15.4
	c7.5,0,14.6,0,22.1,0c-0.5,4.5-0.9,8.6-1.4,13.2c-6.8,0-13.5,0-20.8,0c0,5.3,0,10.1,0,14.9c0,6.5-0.3,13-0.1,19.5
	c0.3,6.9,3.6,9.8,10.6,9.6c3.3-0.1,6.6-0.8,10.3-1.4c0.2,2,0.3,4.1,0.6,6.1C211.3,122.2,211.6,124.1,212,126.7z"/>
<path class="st0" d="M83.1,67.2c-3.3-20.6-17.9-31.7-36.8-33.4C31.2,32.4,16,33,0.8,32.8c-0.2,0-0.5,0.4-0.8,0.7
	C0,64.7,0,96,0,127.9c3.9,0.4,7.4,0.9,10.8,1.2c11.6,1.1,23.3,2,34.7-0.9C76.5,120.2,87.7,95.9,83.1,67.2z M59.3,99.9
	c-4.2,9.4-12.3,13.7-22.2,14.4c-5.3,0.4-10.6,0.1-16.3,0.1c0-23,0-44.6,0-66.2c17.7-3,33.5,2.3,39.2,17.2
	C64.5,76.9,64.3,88.7,59.3,99.9z"/>
<path class="st0" d="M501.4,80.4c-3.7-19.3-21.8-30.5-41.2-21.4c-2.3,1.1-4.7,2.1-7.5,3.3c0-14.4,0-28.2,0-42.4
	c-6.7,1-13,1.9-19.7,2.9c0,1.9,0,3.6,0,5.2c0,31,0,62,0,93c0,2.3-0.1,4.7,0.1,7c0.1,1,0.6,2.3,1.3,2.9c2.4,1.8,6.3,1.3,9.1-0.3
	c1.6-0.9,3.6-1.8,5.3-1.6c4.4,0.4,8.8,1.6,13.3,2.1c13.1,1.5,24.1-2.8,32.1-13.2C502.9,106.8,504,93.9,501.4,80.4z M480.9,105.3
	c-2.5,8.3-7.1,11.5-16.3,11.3c0.2,0,0.1,0,0,0c-0.1,0-0.1,0-0.2,0c0.1,0,0.1,0,0.1,0c0,0,0,0,0,0c-11.4-0.4-11.6-0.6-11.6-11.7
	c0-9.3,0.1-18.7-0.1-28c-0.1-2.9,1-4.2,3.6-5c5.2-1.5,10.4-2.4,15.6,0c5.1,2.3,8,6.5,9.3,11.7C483.1,90.9,483,98.2,480.9,105.3z"/>
<path class="st0" d="M275.9,75.4c-0.2-10-7-16.8-16.8-18.9c-7.2-1.5-14.3-0.8-21.3,0.8c-6.1,1.3-12,3.2-18.1,4.9
	c1.4,5,2.5,9.1,3.7,13.8c2.6-0.8,4.4-1.5,6.3-1.9c5.9-0.9,11.7-2.1,17.7-2.4c5.2-0.2,8.7,3.5,9.2,8.6c0.2,1.9,0,3.9,0,6.2
	c-3.2,0.4-6.1,0.8-9,1.1c-8.3,1-16.4,2.7-23.2,8.1c-10.8,8.7-9.1,26.4,3.1,32.9c6.7,3.6,13.7,3.7,20.6,0.7c3.6-1.5,7.1-3.4,10.7-5.1
	c1.4,2.5,2.7,4.8,4.1,7.2c4.5-1,8.8-2,12.9-2.9C275.9,110.3,276.2,92.9,275.9,75.4z M256.7,113.9c-3.8,2.4-8.1,3.9-12.9,3.5
	c-4.9-0.4-8.5-3.9-8.9-8.6c-0.3-4.6,2.8-8.4,7.9-9.3c1.6-0.3,3.3-0.4,5-0.4c2.8-0.1,5.6,0,8.9,0C256.7,104.6,256.7,109,256.7,113.9z
	"/>
<path class="st0" d="M417.6,77.3c-0.3-10.5-5.5-18.7-18.3-20.8c-13.3-2.2-25.5,1.7-38.2,5.9c1.3,4.6,2.4,8.9,3.7,13.5
	c4.3-1.2,7.9-2.5,11.6-3.2c3.9-0.7,7.9-1.1,11.9-1.1c5.4,0,8.6,2.9,9.6,8.2c0.4,2.1,0.4,4.2,0.6,6.6c-3.5,0.4-6.6,0.8-9.8,1.2
	c-8.3,1.1-16.4,2.8-23.1,8.3c-7,5.9-8.9,16.1-4.8,24.6c3.7,7.6,14,12.7,22.3,10.4c5.9-1.6,11.5-4.1,17.4-6.3
	c1.1,1.9,2.4,4.2,3.8,6.7c4.5-1,8.9-2,13.4-3C417.8,110.9,418.2,94.1,417.6,77.3z M398.4,111.6c-0.1,1.2-1.2,3-2.1,3.3
	c-3.6,1.1-7.3,2.3-11,2.4c-5,0.1-8.4-3.6-8.7-8.4c-0.3-5,2.3-8.4,7.6-9.4c1.8-0.3,3.6-0.6,5.4-0.5c2.8,0,5.6,0.3,9,0.6
	C398.5,104,398.7,107.8,398.4,111.6z"/>
<path class="st0" d="M151.7,76.5c-0.3-11.2-7.2-17.9-18-20.1c-6.4-1.3-12.7-0.7-18.8,0.5c-6.6,1.2-13,3.4-19.8,5.2
	c1.5,5.2,2.7,9.4,3.7,13.1c7.5-1.3,14.5-3.1,21.5-3.5c9.3-0.6,13.8,5.5,11.6,14.9c-3.1,0.4-6.2,0.7-9.4,1.1
	c-7.1,0.9-14.1,2.4-20.3,6.4c-7.2,4.6-10.7,12.4-9.2,20.6c1.5,8.6,7.1,13.8,15.6,16.1c6.5,1.7,12.1-0.2,17.8-2.6
	c2.7-1.1,5.2-2.6,7.9-4c1.5,2.7,2.8,5,4.1,7.2c4.5-0.9,8.7-1.8,13.4-2.8C151.8,110.8,152.1,93.7,151.7,76.5z M129.9,115.2
	c-3.5,0.9-7.1,2-10.6,2.1c-5,0.1-8.5-3.7-8.8-8.4c-0.3-5,2.3-8.6,7.7-9.3c4.6-0.5,9.2-0.1,14.4-0.1c0,4.4-0.1,8,0.1,11.7
	C132.8,113.4,131.9,114.7,129.9,115.2z"/>
<path class="st0" d="M935.6,92.3c-0.1-10.2-1.2-20.2-4-30.1c-6.9-24.4-21.2-42.6-44.5-53.3C872.5,2.1,856.8,0,840.6,0
	C740,0.1,639.3,0,538.7,0c-1.8,0-3.6,0-5.9,0c-0.1,1.5-0.2,2.3-0.2,3.1c0,30.5-0.2,61,0.1,91.5c0.1,7.8,0.8,15.7,2.3,23.3
	c5,24.3,17.4,43.6,39.5,55.9c15.5,8.6,32.3,11.8,49.9,11.8c102,0,204,0,305.9,0c1.6,0,3.2,0,5.2,0c0.1-1.8,0.2-3,0.2-4.3
	C935.7,151.6,935.8,122,935.6,92.3z M630.3,128.4c-10.4,3.3-21,3.3-31.5,0.1c-10.2-3.1-16.8-11.4-17-21.6c-0.2-16.3-0.1-32.7-0.1-49
	c0-0.5,0.2-0.9,0.4-1.6c7.5,0,14.9,0,22.7,0c0,3.9,0,7.5,0,11.2c0,10.2-0.1,20.3,0,30.5c0.1,11.5,7.5,16.6,18.4,12.7
	c3.1-1.1,5-3.2,5.5-6.4c0.3-2.1,0.3-4.3,0.3-6.5c0-13.7,0-27.3,0-41.3c7.2,0,14.1,0,21.4,0c0.1,1.1,0.3,2.4,0.3,3.6
	c0,13.5-0.1,27,0.1,40.5C651.2,115.1,642.4,124.5,630.3,128.4z M743.6,128.6c-9.7,0-19.2,0-28.6-0.1c-0.9,0-2.2-0.9-2.7-1.7
	c-6.6-12-14.1-23.7-17.5-37.3c-0.8-3.2-1.1-6.5-1.7-10.5c-1.4,0-2.8,0-4.7,0c0,16.5,0,32.7,0,49.3c-7.1,0-13.6,0-20.4,0
	c0-24.1,0-48,0-72.3c10.1,0,19.9-0.1,29.7,0.1c1,0,2.5,1,3,1.9c6.4,12.2,13.4,24.1,16.5,37.8c0.6,2.6,0.7,5.2,1.1,8.2
	c1.6,0,3.3,0,5.4,0c0-15.9,0-31.7,0-47.7c6.9,0,13.3,0,19.9,0C743.6,80.4,743.6,104.3,743.6,128.6z M810,128.5
	c-1.3-3.8-2.6-7.7-4-11.7c-8.4,0-16.7,0-25.3,0c-1.4,3.8-2.8,7.6-4.3,11.6c-6.8,0-13.6,0-20.5,0c-1.7-6.6,1.3-12.2,2.9-18
	c4.7-16.9,9.8-33.7,14.8-50.5c0.4-1.2,0.9-2.4,1.5-3.9c11.8,0,23.4,0,35,0c2.3,0,3.1,1,3.7,3.1c5.8,20.4,11.8,40.8,17.5,61.2
	c0.7,2.5,0.4,5.2,0.6,8.3C824.4,128.5,817.4,128.5,810,128.5z M888.9,128.4c-15.1,0-29.9,0-44.9,0c0-24.1,0-48,0-72.1
	c7.5,0,14.8,0,22.5,0c0,18,0,35.9,0,54.2c9.6,0,18.7,0,28.8,0C893,117.1,890.9,122.8,888.9,128.4z"/>
<path class="st0" d="M791.4,74.9c-1.9,8.8-3.7,17.5-5.5,26.1c5.1,0,9.9,0,14.6,0c-1.8-8.9-3.4-17.4-5.2-26.1
	C794.1,74.9,792.7,74.9,791.4,74.9z"/>
</svg>
