<?xml version="1.0" encoding="utf-8"?>
<!-- Generator: Adobe Illustrator 24.2.0, SVG Export Plug-In . SVG Version: 6.00 Build 0)  -->
<svg version="1.1" id="Layer_1" xmlns="http://www.w3.org/2000/svg" xmlns:xlink="http://www.w3.org/1999/xlink" x="0px" y="0px"
	 viewBox="0 0 41 39.8" style="enable-background:new 0 0 41 39.8;" xml:space="preserve">
<style type="text/css">
	.st0{fill:#FCB44B;}
</style>
<g>
	<path class="st0" d="M23.5,15.5c0.1,0.1,0.2,0.2,0.3,0.2c0.1,0,0.3,0.1,0.4,0.1c0.2-0.2,0.5-0.2,0.7-0.1c0.5,0.1,1.1,0,1.6-0.1
		c0.1,0,0.3,0,0.4-0.1c0.5-0.1,0.9,0,1.2,0.2c0.4,0.3,0.5,0.8,0.1,1.2c-0.1,0.1-0.2,0.2-0.2,0.3c0,0.3-0.1,0.6-0.4,0.8
		c0,0-0.1,0.1,0,0.1c0.2,0.2,0,0.5,0,0.7c0,0.5,0.1,1,0.2,1.5c0.1,0.3,0.4,0.6,0.6,0.9c0.3,0.5,0.3,0.8-0.1,1.2
		c-0.3,0.2-0.3,0.3,0,0.5c0.5,0.4,0.7,0.9,0.8,1.5c0.1,0.4,0.3,0.9,0.4,1.3c0.1,0.3,0.1,0.5-0.1,0.7c-0.2,0.2-0.5,0.3-0.9,0.2
		c-0.3-0.1-0.5-0.6-0.4-0.9c0.1-0.2,0.1-0.3,0-0.4c-0.3-0.4-0.3-0.5-0.6-0.1c-0.2,0.2-0.5,0.5-0.8,0.3c-0.8,0.2-1.7,0-2.5,0.1
		c-0.2,0-0.4-0.1-0.6-0.1c-0.1,0-0.2,0-0.2,0c0,0.1,0.1,0.2,0.1,0.4c0,0,0.1,0,0.1,0c0.5-0.1,0.7,0.2,1,0.5c0.2,0.3,0.3,0.8,0.1,1.1
		c-0.2,0.3-0.5,0.3-0.9,0.2c-0.1,0-0.3,0-0.4,0c-0.5,0-0.5,0.1-0.5,0.6c0,0.1,0,0.2,0,0.3c0,0.1,0,0.2,0,0.3
		c-0.1-0.1-0.1-0.2-0.2-0.3c0-0.1,0-0.1,0-0.2c0-0.8,0-0.9,0.9-1c0.1,0,0.2,0,0.2,0c0.3,0.1,0.7,0.1,0.7-0.1c0.1-0.3,0.1-0.5,0-0.8
		c-0.1-0.3-0.3-0.4-0.7-0.4c-0.1,0-0.2,0-0.3,0c-0.5-0.1-0.5-0.1-0.4-0.5c0-0.4,0-0.4,0.4-0.4c1,0,2.1,0,3.1,0
		c0.4,0,0.7-0.1,0.9-0.4c0.1-0.1,0.1-0.1,0.2-0.2c0.1-0.1,0.2-0.1,0.3,0c0.3,0.4,0.5,0.7,0.4,1.2c0,0.2-0.1,0.4,0.2,0.5
		c0.3,0.1,0.5,0,0.7-0.1c0.2-0.1,0.1-0.3,0.1-0.5c-0.1-0.3-0.2-0.7-0.3-1c-0.1-0.2-0.2-0.5-0.2-0.7c0-0.3-0.2-0.5-0.4-0.7
		c-0.2-0.2-0.4-0.4-0.6-0.6c0,0,0-0.2,0-0.3c0.1-0.1,0.3-0.2,0.4-0.4c0.3-0.3,0.3-0.5,0.1-0.8c-0.2-0.2-0.4-0.4-0.5-0.6
		c-0.1-0.2-0.3-0.5-0.3-0.8c-0.1-0.6,0-1.3,0-1.9c0-0.1,0.1-0.2,0.2-0.3c0.2-0.2,0.3-0.3,0.2-0.6c0-0.1,0.2-0.3,0.2-0.4
		c0.1-0.1,0.2-0.2,0.2-0.3c0-0.2-0.1-0.5-0.2-0.6c-0.4-0.2-0.8-0.4-1.2-0.2c-0.1,0.1-0.2,0.1-0.3,0.1c-0.3,0-0.6,0.1-0.9,0.1
		c-0.2,0-0.3,0-0.5,0c-0.3,0-0.6-0.1-0.9,0C23.8,16.1,23.6,16.1,23.5,15.5L23.5,15.5z"/>
	<path class="st0" d="M21.1,35.5c0.2-0.3,0.3-0.6,0.5-0.9c0.1-0.2,0.1-0.4-0.1-0.4c-0.3,0-0.6-0.2-0.8-0.4c0,0-0.1,0-0.2,0
		c-0.1,0-0.3,0.1-0.4,0.1c-0.3,0.1-0.7,0.2-1-0.1c-0.1-0.1-0.3-0.1-0.4,0c-0.3,0.1-0.6,0.2-0.9,0.4c-0.2,0.1-0.3,0.1-0.4,0
		c-0.1-0.1-0.2-0.1-0.4,0c-0.5,0.1-1,0-1.3-0.4c-0.2-0.2-0.4-0.4-0.3-0.8c0,0,0-0.2-0.1-0.2c-0.4-0.2-0.7-0.4-0.6-0.9
		c0-0.1-0.1-0.1-0.1-0.2c-0.3-0.2-0.6-0.3-0.9-0.5c-0.4-0.2-0.6-0.4-0.8-0.8c-0.1-0.3-0.2-0.5-0.5-0.6c-0.2,0-0.3-0.2-0.5-0.3
		c-0.1-0.1-0.2-0.1-0.3-0.1c-0.1,0-0.2,0-0.3,0c-0.3-0.1-0.6-0.3-1-0.4c-0.2,0-0.3-0.2-0.5-0.4c-0.2-0.2-0.3-0.2-0.5,0
		c-0.4,0.3-0.9,0.2-1.3,0.1c-0.3-0.1-0.6-0.2-0.9-0.3c-0.3-0.1-0.6-0.1-0.6-0.6c0-0.1-0.3-0.3-0.4-0.3c-0.9-0.3-1.7-0.7-2.3-1.4
		c-0.1-0.1-0.2-0.2-0.3-0.2c-0.2-0.2-0.3-0.4-0.2-0.6c0-0.1,0.1-0.1,0.2-0.1c0,0,0,0,0,0c0,0.2,0,0.4,0.2,0.6
		c0.5,0.6,1.1,0.9,1.8,1.3c0.2,0.1,0.5,0.2,0.8,0.3c0.3,0.1,0.5,0.2,0.6,0.5c0,0.2,0.1,0.3,0.3,0.3c0.6,0.1,1.2,0.4,1.8,0.3
		c0.2,0,0.4,0,0.5-0.2c0.2-0.2,0.3-0.2,0.4,0c0.3,0.5,0.9,0.5,1.4,0.8c0.1,0,0.2,0.1,0.2,0.1c0.7,0,1.1,0.5,1.6,0.8
		c0.1,0,0.1,0.2,0.1,0.3c0.1,0.3,0.2,0.7,0.7,0.8c0.3,0.1,0.5,0.4,0.9,0.5c0.1,0,0.2,0.3,0.2,0.4c-0.1,0.4,0.2,0.6,0.5,0.7
		c0.3,0.1,0.4,0.2,0.2,0.5c-0.1,0.2,0,0.5,0.2,0.6c0.2,0.1,0.5,0.3,0.8,0.2c0.3,0,0.6,0.1,0.9,0.1c0.4-0.1,0.8-0.2,1.1-0.4
		c0.2-0.1,0.3-0.2,0.5,0c0.2,0.3,0.5,0.3,0.8,0.2c0.1-0.1,0.3-0.1,0.4-0.1c0.1,0,0.3,0,0.3,0c0.3,0.3,0.8,0.4,1.2,0.6
		c0.1,0.1,0.2,0.1,0.1,0.3C21.6,34.8,21.4,35.2,21.1,35.5L21.1,35.5z"/>
	<path class="st0" d="M22.4,35c0-0.1,0.1-0.2,0.1-0.3c0.2-0.3,0.3-0.6,0.1-0.8c-0.2-0.1-0.4-0.3-0.7-0.4c-0.4-0.2-0.9-0.4-1.3-0.6
		c0,0,0-0.1,0-0.1c0,0,0.1-0.1,0.1,0c0.1,0,0.2,0,0.3,0.1c0.5,0.4,1.2,0.5,1.7,0.9c0,0,0.2,0,0.2-0.1c0.1-0.2,0.1-0.5,0.2-0.7
		c0.1-0.5,0.2-1,0.3-1.6c0-0.1,0-0.2,0-0.3c0-0.1-0.1-0.1-0.1-0.2c-0.2-0.6-0.6-1.1-1.1-1.5c-0.1-0.1-0.2-0.4-0.2-0.6
		c0-0.3,0-0.7,0-1c0-0.4,0.2-0.6,0.6-0.7c0.2,0,0.2-0.1,0.1-0.2c-0.1-0.1-0.2-0.2-0.2-0.2c0-0.5,0-1,0-1.6c0-0.2,0.2-0.3,0.4-0.3
		c0.4,0,0.7-0.2,1.2-0.1c0.5,0.1,1.1,0,1.7,0c0.1,0,0.1-0.1,0.2-0.1c0.1-0.1,0.1-0.2,0.2-0.2c0.2-0.2,0.4-0.3,0.7,0
		c0.3,0.2,0.3,0.2,0.6,0c0,0,0.1-0.1,0.1-0.1c0.1-0.1,0.2-0.2,0.3-0.3c-0.1-0.1-0.3-0.2-0.4-0.3c-0.1,0-0.1,0-0.2-0.1
		c-0.5-0.1-0.6-0.5-0.4-0.9c0.1-0.2,0.3-0.2,0.5-0.4c0,0,0,0,0,0c-0.1,0.1-0.1,0.2-0.2,0.3c-0.1,0.2-0.1,0.3-0.1,0.5
		c0,0.1,0.2,0.2,0.2,0.2c0.3-0.1,0.5,0.2,0.6,0.3c0.1,0,0.1,0.1,0.1,0.1c0.3,0.3,0.3,0.3-0.1,0.4c-0.2,0.1-0.4,0.3-0.6,0.5
		c-0.1,0.1-0.3,0.2-0.4,0c0-0.1-0.1-0.1-0.1-0.2c-0.2-0.2-0.4-0.2-0.5,0C25.9,25,25.6,25,25.2,25c-0.5,0-1-0.1-1.6-0.1
		c-0.2,0-0.3,0-0.5,0c-0.6,0.1-0.6,0.1-0.6,0.7c0,0.2,0,0.5,0,0.7c0,0.4,0,0.5,0.5,0.5c0.2,0,0.3-0.1,0.5,0.1
		c-0.1,0.1-0.3,0.1-0.4,0.2c-0.2,0.1-0.3,0.1-0.5,0.1c-0.4,0.1-0.4,0.1-0.4,0.5c0,0.3,0,0.6,0,0.9c-0.1,0.5,0.1,0.8,0.5,1
		c0.2,0.2,0.5,0.3,0.5,0.7c0,0.1,0.1,0.3,0.2,0.5c0.2,0.3,0.2,0.5,0.1,0.8c-0.3,1.6-0.6,3.2-0.9,4.8c0,0.1-0.1,0.1-0.1,0.2
		c-0.1,0-0.1-0.1-0.2-0.1c-0.1-0.2-0.3-0.3-0.6-0.4c0,0-0.1-0.1-0.1-0.2c0.1,0,0.2-0.1,0.2-0.1c0.2,0.1,0.3,0.1,0.5,0.2
		c0.1-0.2,0.1-0.4,0.2-0.6c0-0.1,0.1-0.3,0.1-0.4C22.6,34.9,22.4,35,22.4,35C22.3,35,22.4,35,22.4,35z"/>
	<path class="st0" d="M19.8,5c0.1-0.1,0.3-0.3,0.4-0.4c0.2-0.2,0.2-0.3,0.1-0.5c-0.2-0.5-0.6-0.8-1.2-0.8c-0.2,0-0.4,0.1-0.5,0.1
		c-0.3,0.1-0.4,0.3-0.7,0.3c-0.1,0-0.2,0.2-0.2,0.3c0,0.4-0.2,0.6-0.5,0.7c-0.6,0.1-1,0.5-1.5,0.9c-0.2,0.1-0.3,0.2-0.5,0.2
		c-0.3,0-0.6-0.1-1-0.1c-0.5-0.1-0.7,0-0.8,0.5c-0.1,0.2-0.1,0.3-0.3,0.2c-0.2-0.1-0.5-0.3-0.7-0.2c-0.2,0-0.4,0.3-0.6,0.5
		c-0.2,0.2-0.5,0.3-0.7,0.5c-0.1,0.1-0.2,0.3-0.3,0.4c-0.1,0.2-0.2,0.4-0.3,0.6c0,0.1-0.1,0.3,0,0.3c0.3,0.3-0.1,0.6,0,0.9
		c0,0-0.1,0.1-0.2,0.1c-0.4,0-0.7,0.3-0.9,0.7c-0.3,0.5-0.7,0.7-1.2,1c-0.1,0.1-0.2,0.1-0.3,0.2c-0.1,0.1-0.2,0.1-0.2,0.2
		c-0.1-0.1-0.1-0.2-0.2-0.2c-0.2-0.3-0.2-0.3-0.7,0c0,0-0.1,0-0.2,0.1c0-0.1,0-0.1,0-0.2c0.2-0.3,0.6-0.4,0.9-0.1
		c0.1,0.1,0.2,0.1,0.3,0c0.2-0.2,0.5-0.3,0.8-0.5c0.2-0.1,0.4-0.2,0.4-0.4c0.1-0.4,0.5-0.6,0.8-0.8c0.3-0.2,0.4-0.5,0.4-0.8
		c0-0.1-0.1-0.3,0.1-0.4c0,0,0.1-0.1,0.1-0.1c-0.1-0.4,0.1-0.7,0.4-1c0.4-0.3,0.8-0.7,1.3-1c0.2-0.2,0.5-0.2,0.7,0
		C12.9,6,13,6,13.1,5.8c0.1-0.2,0.3-0.3,0.5-0.5c0.2-0.1,0.4,0,0.6,0c0.4,0.1,0.8,0,1.1,0c0.1,0,0.2,0,0.2-0.1
		c0.5-0.4,1-0.7,1.6-0.9c0.1,0,0.3-0.1,0.3-0.3c-0.1-0.4,0.2-0.5,0.5-0.7c0.2-0.1,0.4-0.2,0.6-0.3c0.5-0.2,1.3-0.2,1.6,0.2
		c0.2,0.3,0.3,0.6,0.4,0.9C20.6,4.6,20.3,4.9,19.8,5C19.8,5,19.8,5,19.8,5z"/>
	<path class="st0" d="M19,14.8c0.3,0,0.6,0.1,0.9,0.1c0.3,0,0.6,0,0.8-0.1c0.2-0.1,0.4-0.1,0.6,0c0.2,0.1,0.5,0.1,0.7,0.2
		c0.1,0,0.2,0.1,0.3,0.2c0.4,0.4,0.7,0.9,1.1,1.3c0.2,0.2,0.8,0.4,1,0.2c0.2-0.2,0.4-0.1,0.6-0.1c0.3,0,0.5,0.1,0.8,0
		c0.5-0.1,0.9-0.2,1.4-0.2c0.1,0,0.3,0.1,0.3,0.1c0,0-0.1,0.2-0.1,0.3c0,0,0,0,0,0c-0.3,0.2,0,0.6-0.4,0.9c-0.3,0.2-0.2,0.6-0.2,0.9
		c0,0.3-0.1,0.6-0.1,0.9c0,0.1,0,0.2,0,0.3c0.1,0.5,0.3,0.9,0.4,1.4c0,0.1,0,0.3,0,0.4c-0.1-0.1-0.1-0.2-0.2-0.3
		c-0.2-0.4-0.3-1-0.5-1.4c0-0.1,0-0.2,0-0.3c0-0.3,0.1-0.7,0.1-1c0-0.4,0-0.7,0.3-1c0.2-0.2,0.2-0.5,0.4-0.8c0,0-0.1-0.1-0.1-0.1
		c-0.5,0.3-1.2,0-1.7,0.3c-0.1,0-0.2,0-0.4,0c-0.2,0-0.5,0-0.7,0.1c-0.4,0.1-1,0-1.2-0.3c-0.2-0.2-0.3-0.5-0.6-0.7
		c-0.2-0.3-0.5-0.6-0.9-0.6c-0.1,0-0.3-0.1-0.4-0.2c-0.2-0.1-0.4-0.1-0.5,0c-0.3,0.2-0.7,0.1-1.1,0.1c-0.3,0-0.6,0-0.9,0
		c-0.4,0.1-0.9-0.1-1.1-0.5c-0.1-0.2-0.2-0.5-0.6-0.5c-0.2,0-0.3-0.2-0.3-0.5c0-0.3,0-0.6,0-0.9c0-0.1,0-0.1,0-0.2
		c0-0.1,0.2-0.3,0.2-0.4c0-0.1-0.2-0.2-0.3-0.3c-0.1-0.2-0.3-0.4-0.4-0.7c-0.1-0.4-0.2-0.4-0.5-0.5c-0.2,0-0.4,0.1-0.5-0.1
		c0.2,0,0.3-0.1,0.5-0.1c0.3,0,0.7,0.1,0.8,0.4c0.1,0.3,0.2,0.6,0.5,0.9c0.2,0.2,0.3,0.4,0.1,0.7c-0.2,0.4-0.2,0.8,0,1.2
		c0,0.1,0.2,0.2,0.2,0.2c0.3,0,0.4,0.2,0.5,0.4c0.1,0.3,0.3,0.4,0.6,0.4C18.6,14.8,18.8,14.8,19,14.8C19,14.8,19,14.8,19,14.8z"/>
	<path class="st0" d="M37.7,2.2c0.1,0,0.2,0,0.2,0.1c0,0.1,0,0.2,0,0.3c0,2,0,4,0,6c0,0.5-0.1,0.6-0.6,0.6c0,0-0.1,0-0.1,0
		c-0.3,0-0.6,0-0.9,0.1c0,0.3,0,0.6,0,0.9c0,0.6,0,0.6-0.6,0.6c0,0,0,0-0.1,0c-0.3,0-0.6-0.1-0.8,0.1c-0.1,0.2-0.1,0.5-0.1,0.8
		c0,0.6,0,0.6-0.6,0.6c-3.1,0-6.3,0-9.4,0c-0.2,0-0.4,0.1-0.5-0.1l0,0c3.2,0,6.3,0,9.5,0c0.1,0,0.2,0,0.3,0c0.4,0,0.4,0,0.4-0.4
		c0-0.3,0-0.6,0-0.9c0-0.2,0.1-0.3,0.3-0.3c0.3,0,0.6,0,0.9,0c0.4,0,0.4,0,0.4-0.4c0-0.3,0-0.6,0-0.9c0-0.2,0.1-0.3,0.3-0.3
		c0.3,0,0.7,0,1,0c0.2,0,0.3-0.1,0.3-0.3c0-0.1,0-0.2,0-0.3C37.7,6.3,37.7,4.2,37.7,2.2C37.7,2.2,37.7,2.2,37.7,2.2z"/>
	<path class="st0" d="M8.8,27.7c0,0.2,0,0.3-0.2,0.3c-0.2,0-0.5-0.1-0.7-0.1c-0.2,0-0.3-0.1-0.4-0.1c-0.2,0-0.2,0-0.3-0.2
		c-0.1-0.3-0.6-0.7-0.8-0.7c-0.5-0.1-1-0.3-1.3-0.6c-0.1-0.1-0.3-0.2-0.4-0.2c-0.1-0.1-0.2-0.2-0.3-0.3c-0.1-0.1-0.1-0.2-0.1-0.3
		c0.1,0,0.2,0,0.2,0c0.4,0,0.6-0.4,0.3-0.8c-0.2-0.3-0.1-0.4,0-0.6c0.1-0.2,0.3-0.3,0.5-0.2c0.4,0.2,0.7-0.1,1.1-0.1
		c0.1,0,0.2-0.2,0.2-0.3c0-0.3,0.3-0.4,0.3-0.8c0-0.1,0.1-0.2,0.2-0.3c0.5-0.3,0.6-0.8,0.9-1.3c0,0,0,0.1,0,0.1c0,0,0.1,0.1,0.1,0.1
		c0,0,0-0.1,0-0.1c0-0.1-0.1-0.1-0.1-0.1c0.3-0.3,0-0.6-0.1-0.8l0,0c0.5,0.1,0.6,0.3,0.4,0.7c-0.1,0.2-0.2,0.4-0.3,0.6
		c-0.1,0.1-0.2,0.3-0.2,0.4c0,0.2-0.2,0.4-0.4,0.4C7.1,22.5,7,22.6,7,22.8c-0.2,0.9-0.6,1.2-1.5,1.3c-0.1,0-0.3,0-0.4,0
		c-0.2,0-0.3,0.2-0.1,0.4c0.2,0.4,0.2,0.5-0.1,0.9c-0.1,0.1-0.1,0.2-0.2,0.3c0,0,0,0.1,0,0.2C5.1,26,5.5,26.4,6,26.5
		c0.6,0.1,1,0.5,1.3,0.8c0.2,0.2,0.5,0.3,0.7,0.3C8.3,27.7,8.5,27.7,8.8,27.7L8.8,27.7z"/>
	<path class="st0" d="M24.3,5.3c0-0.2,0-0.2,0.2-0.2c0.3,0,0.6,0,0.8,0c0.2,0,0.4-0.1,0.3-0.3c0-0.3,0-0.5,0-0.8
		c0-0.3,0.1-0.4,0.4-0.4c0.3,0,0.6,0,0.9,0c0.2,0,0.3-0.1,0.2-0.2c0-0.3,0-0.6,0-0.8c0-0.3,0.2-0.5,0.5-0.5c0.6,0,1.3,0,1.9,0
		c2.5,0,5,0,7.5,0c0.1,0,0.3,0,0.4,0c0,0,0.1,0.1,0.1,0.2c0,0,0,0,0,0c-2.5,0-4.9,0-7.4,0c-0.8,0-1.6,0-2.5,0c-0.3,0-0.4,0-0.4,0.4
		c0,0.3,0,0.5,0,0.8c0,0.4-0.1,0.4-0.4,0.4c-0.2,0-0.5,0-0.7,0c-0.4,0-0.4,0-0.4,0.4c0,0.2,0,0.5,0,0.7c0,0.3-0.1,0.4-0.4,0.4
		C25.1,5.3,24.7,5.3,24.3,5.3L24.3,5.3z"/>
	<path class="st0" d="M18.8,4.1c0,0.1,0,0.1,0,0.1c0,0.1-0.1,0.2,0.1,0.2c0.2,0,0.3-0.1,0.4-0.1c0.1,0,0.1,0,0.2,0
		c-0.1,0.1-0.1,0.2-0.2,0.2c-0.2,0.1-0.5,0.2-0.7,0.2c-0.4,0-0.6,0.2-0.7,0.6c-0.1,0.3-0.3,0.5-0.7,0.6C17,6,16.8,6.4,16.7,6.6
		C16.2,7.2,16,7.9,16,8.7c0,0.2-0.1,0.3-0.2,0.5c-0.2,0.4-0.4,0.7-0.6,1.1c0,0-0.1,0.1-0.1,0.1c-0.1,0-0.1-0.1-0.1-0.1
		c0-0.1,0-0.2,0.1-0.3c0.5-0.6,0.8-1.3,0.9-2.1c0.1-0.5,0.4-0.9,0.7-1.4c0.2-0.3,0.4-0.7,0.9-0.8c0.1,0,0.1-0.1,0.1-0.1
		c0-0.1,0-0.1,0.1-0.2c-0.1,0-0.1,0-0.2,0c-0.1,0-0.1,0-0.2-0.1c0.1,0,0.1-0.1,0.2-0.1c0.3-0.1,0.6-0.3,0.8-0.6
		C18.3,4.3,18.6,4.3,18.8,4.1L18.8,4.1z"/>
	<path class="st0" d="M7.6,13c0-0.1,0-0.2,0.2-0.2c0.7,0.2,0.9,0,0.8-0.7c-0.1-0.6,0-0.9,0.5-1.1c0.3-0.2,0.6-0.4,0.7-0.8
		c0.1-0.2,0.3-0.3,0.6-0.3c0.6,0,0.7-0.3,0.7-0.8c0-0.2,0-0.4,0-0.6c0-0.2,0.1-0.5,0.2-0.7c0.1-0.4,0.1-0.4,0.5-0.5l0,0
		c-0.3,0.3-0.4,0.7-0.4,1.1c0,0.3-0.1,0.6,0,0.9c0.1,0.3-0.4,0.8-0.7,0.8c-0.3,0-0.5,0.1-0.7,0.4c-0.2,0.3-0.5,0.6-0.9,0.8
		c-0.2,0.2-0.3,0.3-0.3,0.5c0,0.2,0,0.3,0,0.5c0.1,0.6-0.3,0.9-0.7,0.8C8,13.1,7.8,13.1,7.6,13L7.6,13z"/>
	<path class="st0" d="M7.8,17c0,0.2,0,0.2,0,0.3c-0.3,0.2-0.4,0.5-0.2,0.9c-0.2,0.4,0,0.7,0.1,1c0.1,0.2,0,0.4-0.2,0.4
		c0,0-0.1-0.1-0.1-0.1c0.1-0.2,0.1-0.3,0-0.5c-0.1-0.1-0.1-0.3-0.1-0.5c0-0.2,0-0.4-0.1-0.6c0-0.2,0-0.3,0.1-0.5
		c0.2-0.2,0.2-0.4,0.1-0.6c-0.2-0.4-0.3-0.7-0.1-1.1c0.1-0.3,0-0.6-0.3-0.7c-0.2-0.1-0.3-0.3-0.4-0.5c-0.1-0.2-0.2-0.3-0.3-0.4
		c0-0.1,0-0.2,0-0.3c0.2-0.1,0.5-0.2,0.7-0.3c0,0,0.1,0,0.1,0c0,0,0,0.1,0,0.1c0,0,0,0,0,0c-0.2,0.1-0.4,0.3-0.5,0.4
		c0.2,0.3,0.3,0.5,0.6,0.8c0.3,0.3,0.5,0.6,0.4,1.1c-0.1,0.2-0.1,0.5,0.1,0.7C7.7,16.7,7.8,16.9,7.8,17z"/>
	<path class="st0" d="M23.5,15.5c-0.1-0.1-0.3-0.2-0.4-0.3c-0.2-0.2-0.3-0.4-0.5-0.6c-0.2-0.2-0.4-0.3-0.6-0.3c-0.1,0-0.3,0-0.4-0.1
		c-0.3-0.2-0.6-0.1-0.9-0.1c-0.3,0-0.5,0.1-0.8,0.1c-0.4,0-0.8,0-1.1,0c-0.3,0-0.5-0.1-0.5-0.3c0-0.2-0.2-0.4-0.4-0.4
		c-0.1,0-0.2-0.1-0.2-0.2c0,0,0-0.1,0-0.2c0,0,0.1,0,0.1,0c0.4,0.2,0.4,0.2,0.7,0.7c0.1,0.1,0.2,0.1,0.3,0.1c0.4-0.1,0.8-0.1,1.2,0
		c0.2,0,0.3,0,0.5-0.1c0.4-0.1,0.8-0.2,1.2,0c0.1,0.1,0.3,0,0.4,0.1c0.1,0,0.3,0,0.4,0.1C22.9,14.6,23.2,15,23.5,15.5L23.5,15.5z"/>
	<path class="st0" d="M13.7,30C13.8,30,13.8,30.1,13.7,30c0.5,0.3,0.9,0.6,1.3,0.8c0.2,0.1,0.3,0.4,0.5,0.6c0.1,0.2,0.2,0.4,0.4,0.5
		c0.3,0.2,0.4,0.5,0.5,0.9c0,0.2,0.1,0.3,0.3,0.2c0.1,0,0.3,0,0.3,0c0.2,0.2,0.5,0.2,0.7,0c0.2-0.1,0.3-0.1,0.5-0.2c0,0,0.1,0,0.1,0
		c0,0,0,0.1,0,0.1c-0.3,0.2-0.7,0.4-1.1,0.3c-0.2-0.1-0.4-0.1-0.6,0c-0.2,0.1-0.4,0-0.5-0.3c-0.1-0.2-0.1-0.4-0.1-0.5
		c-0.1-0.1-0.2-0.4-0.3-0.4c-0.3,0-0.3-0.2-0.4-0.4c-0.2-0.4-0.3-0.7-0.8-0.8c-0.3-0.1-0.5-0.3-0.8-0.4c-0.1-0.1-0.1-0.2-0.1-0.3
		C13.7,30.1,13.7,30.1,13.7,30z"/>
	<path class="st0" d="M3.3,25.2C3.3,25.1,3.3,25.1,3.3,25.2c0.3-0.4,0.4-0.8,0.5-1.2c0.1-0.3,0.2-0.5,0.4-0.7
		c0.2-0.2,0.4-0.3,0.5-0.7c0-0.1,0.1-0.2,0.2-0.3c0.2-0.2,0.5-0.3,0.7,0c0.2,0.3,0.3,0.1,0.4,0c0.1-0.1,0.2-0.2,0.3-0.3
		c0,0,0.1,0,0.1,0c0,0,0,0.1,0,0.1c0,0,0,0.1-0.1,0.1c-0.1,0.2-0.2,0.4-0.4,0.6c-0.1,0.1-0.2,0.2-0.4,0.3c0,0-0.1,0-0.1,0
		c0,0,0-0.1,0-0.1c0,0,0-0.1,0-0.1c0-0.1,0-0.3-0.1-0.4c0,0-0.2,0-0.3,0C5.1,22.6,5,22.8,5,22.9c0.1,0.2,0,0.2-0.2,0.3
		c-0.5,0.3-0.9,0.7-0.9,1.4c0,0.1,0,0.2-0.1,0.2C3.7,24.9,3.5,25,3.3,25.2L3.3,25.2z"/>
	<path class="st0" d="M24.3,12.1c-0.1,0-0.2,0-0.2-0.1c0-0.1,0-0.2,0-0.3c0-2,0-4,0-6c0-0.1,0-0.2,0-0.3c0-0.1,0.1-0.1,0.2-0.1l0,0
		C24.3,7.6,24.3,9.8,24.3,12.1L24.3,12.1z"/>
	<path class="st0" d="M22.2,37.4c0.1,0,0.1,0,0.2,0.1c0.3,0.1,0.4,0,0.4-0.2c0.1-0.5,0.2-1,0.3-1.5c0.3-1.3,0.5-2.6,0.8-4
		c0-0.1,0.1-0.1,0.1-0.2c0,0.1,0.1,0.1,0.1,0.2c-0.1,0.4-0.1,0.8-0.2,1.2c-0.2,0.8-0.3,1.6-0.5,2.5c-0.1,0.4-0.1,0.7-0.2,1.1
		c-0.1,0.3-0.1,0.6-0.2,0.9c-0.1,0.2-0.2,0.3-0.4,0.3C22.4,37.7,22.3,37.6,22.2,37.4L22.2,37.4z"/>
	<path class="st0" d="M9.1,27.5c0-0.1,0.1-0.2,0.1-0.2c0.3,0.1,0.6,0.2,0.9,0.4c0.3,0.2,0.5,0.4,0.8,0.5c0.2,0.1,0.3,0.2,0.6,0.1
		c0,0,0.1,0,0.2,0c0.4,0.3,0.9,0.2,1.2,0.6c0.2,0.2,0.4,0.3,0.5,0.5c0.1,0.1,0.1,0.2,0.2,0.2c0,0.1,0,0.2,0,0.3c0-0.1,0-0.2-0.1-0.2
		c-0.3-0.3-0.6-0.7-0.9-0.8c-0.4-0.1-0.7-0.5-1.2-0.3c-0.1,0-0.2-0.1-0.3-0.1c-0.2-0.1-0.3-0.1-0.5-0.2c-0.1,0-0.2,0-0.2-0.1
		C10,27.7,9.5,27.6,9.1,27.5L9.1,27.5z"/>
	<path class="st0" d="M6.1,15.1c0,0-0.1,0-0.1-0.1c-0.1-0.3-0.2-0.6-0.4-0.8c0,0,0-0.1,0-0.1c0.2-0.5,0.3-0.9,0.5-1.4
		c0-0.1,0.3-0.1,0.4-0.1c0.2,0.1,0.3,0.1,0.3-0.1c0-0.1,0-0.3,0-0.4c0-0.1-0.2-0.2-0.2-0.3c0,0,0-0.1,0-0.1c0,0,0.1,0,0.1,0
		c0.2,0.2,0.4,0.4,0.4,0.6c0,0.2-0.2,0.4-0.3,0.7c0,0-0.1,0-0.1,0c-0.1,0-0.3-0.1-0.4,0C6,13,6,13.2,5.9,13.4
		c-0.1,0.2-0.1,0.4-0.2,0.6c-0.1,0.2,0,0.3,0.1,0.4C6.1,14.5,6.1,14.8,6.1,15.1L6.1,15.1z"/>
	<path class="st0" d="M13.7,7.1c0.1-0.3,0.1-0.7,0.2-1c0,0,0.1-0.1,0.2-0.1C14.6,6,15,6,15.5,6.1c0.1,0,0.3-0.1,0.4-0.1
		c0.3-0.2,0.6-0.4,0.9-0.6c0.1,0,0.1-0.1,0.2-0.1c0,0,0.1,0,0.1,0.1c0,0,0,0.1,0,0.1c-0.4,0.3-0.9,0.6-1.3,0.9c-0.1,0-0.2,0-0.2,0
		c-0.2,0-0.5-0.2-0.7,0.1c0,0-0.1,0-0.2,0c-0.3-0.2-0.3-0.2-0.5,0.1c-0.1,0.1-0.1,0.3-0.2,0.4C13.9,6.9,13.8,7,13.7,7.1
		C13.7,7.1,13.7,7.1,13.7,7.1z"/>
	<path class="st0" d="M21.1,35.5c-0.1,0.2-0.2,0.4-0.3,0.5c-0.2,0.3-0.2,0.4,0.2,0.5c0.1,0.1,0.2,0.2,0.3,0.2
		c0.5-0.1,0.6,0.3,0.9,0.5c0,0,0,0.1,0,0.1c0,0,0,0,0,0c-0.5-0.2-0.9-0.4-1.4-0.6c-0.1,0-0.2-0.1-0.3-0.2c-0.1-0.1-0.2-0.3-0.1-0.4
		C20.7,35.9,20.9,35.7,21.1,35.5L21.1,35.5z"/>
	<path class="st0" d="M17,10.2c-0.3-0.2-0.6-0.4-0.9-0.6c0,0,0-0.1,0-0.1c0.1-0.1,0.1-0.2,0.2-0.3c0.2-0.2,0.4-0.4,0.2-0.8
		c0,0,0.1-0.1,0.2-0.2l0,0c0.1,0.4,0.2,0.7-0.1,1c-0.2,0.2,0,0.4,0.1,0.5C16.8,9.9,17,10,17,10.2L17,10.2z"/>
	<path class="st0" d="M17.3,11.2c0.7,0.3,0.9,1.2,0.5,1.8c0,0-0.1,0-0.1,0c0-0.1-0.1-0.1,0-0.2c0.2-0.3,0.2-0.6,0-0.9
		c-0.1-0.1-0.2-0.3-0.2-0.4C17.5,11.4,17.4,11.3,17.3,11.2L17.3,11.2z"/>
	<path class="st0" d="M16.9,7.5c-0.1-0.5,0.3-0.7,0.5-1.1c0-0.1,0.2,0,0.3,0c0,0,0,0.1,0,0.2C17.3,6.7,17.3,7.1,16.9,7.5
		C17,7.5,16.9,7.5,16.9,7.5L16.9,7.5z"/>
	<path class="st0" d="M24.2,31.1c0,0.1,0,0.1,0,0.2c0,0-0.1,0.1-0.1,0.1c0,0-0.1-0.1-0.1-0.1c0,0,0-0.1,0-0.2
		c-0.1-0.2-0.2-0.4-0.2-0.7c0-0.1-0.1-0.2-0.2-0.4c0-0.1,0-0.3,0-0.3c0.2,0,0.1,0.2,0.1,0.3c0,0.1,0.1,0.2,0.2,0.4
		C24.1,30.6,24.2,30.9,24.2,31.1C24.3,31.1,24.2,31.1,24.2,31.1z"/>
	<path class="st0" d="M6.4,17.3c0,0.2,0,0.5,0.2,0.6c0.3,0.2,0.1,0.5,0.1,0.8c0,0.1,0,0.3-0.1,0.4l0,0c0-0.2-0.1-0.3-0.1-0.5
		c0-0.3,0-0.5-0.3-0.7C6.1,17.7,6.1,17.6,6.4,17.3L6.4,17.3z"/>
	<path class="st0" d="M18.8,32.6c0.2,0.1,0.4,0.2,0.7,0.2c0.1,0,0.2,0.1,0.3,0.1c0.1,0,0.2-0.1,0.2,0.1c0,0.1-0.2,0.2-0.3,0.1
		c-0.2-0.1-0.4-0.2-0.6-0.3c-0.1,0-0.2-0.1-0.3-0.1c-0.1,0-0.2,0.2-0.2,0C18.6,32.7,18.8,32.6,18.8,32.6z"/>
	<path class="st0" d="M27.2,22.3c0-0.1,0.1-0.2,0.1-0.3c0.1-0.2,0.3-0.3,0.1-0.5c0,0,0-0.1,0-0.1c0,0,0.1,0,0.1,0
		c0.3,0.2,0.3,0.5,0,0.7C27.4,22.2,27.3,22.3,27.2,22.3L27.2,22.3z"/>
	<path class="st0" d="M18.8,5.4c-0.2,0.3-0.4,0.6-0.6,0.8c0,0-0.1,0-0.1,0c0,0,0-0.1,0-0.1c0.1-0.3,0.3-0.5,0.4-0.8
		C18.5,5.4,18.6,5.3,18.8,5.4C18.7,5.3,18.7,5.4,18.8,5.4z"/>
	<path class="st0" d="M19.8,5c0,0.1-0.1,0.2-0.1,0.2c-0.2,0.1-0.4,0.2-0.6,0.2c0,0-0.1-0.1-0.2-0.1c0,0,0.1-0.1,0.1-0.1
		C19.3,5.1,19.6,5,19.8,5C19.8,5,19.8,5,19.8,5z"/>
	<path class="st0" d="M13.7,7.1c-0.1,0.3-0.3,0.3-0.6,0.3c-0.2,0-0.4,0-0.4-0.3l0,0C13,7.3,13.3,7.2,13.7,7.1L13.7,7.1z"/>
	<path class="st0" d="M22.3,35c0,0.3-0.2,0.6-0.4,0.8c0,0-0.1,0-0.1,0c0,0,0-0.1,0-0.1C22,35.5,22,35,22.3,35L22.3,35z"/>
	<path class="st0" d="M6.7,19.1c0.2,0.1,0.3,0.4,0.1,0.6c-0.1,0.1-0.1,0.2-0.2,0.2c0,0-0.1,0-0.2,0c0,0,0-0.1,0-0.1
		C6.7,19.6,6.7,19.4,6.7,19.1L6.7,19.1z"/>
	<path class="st0" d="M12.6,7.1c-0.2,0.1-0.2-0.3-0.5-0.1c0,0,0,0-0.1-0.1c0.1-0.1,0.2-0.2,0.3-0.3c0.1-0.1,0.2,0,0.2,0.1
		C12.6,6.8,12.6,7,12.6,7.1C12.6,7.1,12.6,7.1,12.6,7.1z"/>
	<path class="st0" d="M16.7,8.2c0-0.1-0.1-0.2-0.1-0.3c0-0.2,0-0.4,0.3-0.4l0,0c0,0.2,0,0.4,0,0.5C16.9,8.1,16.8,8.2,16.7,8.2
		L16.7,8.2z"/>
	<path class="st0" d="M6.6,16.6C7,16.8,7,17,6.6,17.2c-0.1,0-0.2,0.1-0.3,0.1l0,0c0-0.1,0-0.2,0.1-0.2C6.7,17,6.6,16.8,6.6,16.6
		L6.6,16.6z"/>
	<path class="st0" d="M7.7,20.3c-0.3-0.1-0.1-0.4-0.3-0.6c0,0,0.1,0,0.1,0C7.7,19.9,7.9,20.1,7.7,20.3L7.7,20.3z"/>
	<path class="st0" d="M18.8,4.2c0-0.1,0-0.2,0.1-0.2c0.1-0.1,0.3-0.1,0.5-0.2c0,0,0,0,0,0C19.3,3.9,19.2,4,19,4.1
		C19,4.1,18.9,4.1,18.8,4.2C18.8,4.1,18.8,4.2,18.8,4.2z"/>
	<path class="st0" d="M7.6,13c0,0,0,0.1,0,0.1c-0.1,0.1-0.1,0.2-0.2,0.2c0-0.1,0-0.2,0-0.3C7.4,12.8,7.5,13,7.6,13
		C7.6,13,7.6,13,7.6,13z"/>
	<path class="st0" d="M6.8,21.4c-0.1-0.1-0.1-0.3-0.2-0.4c0,0,0-0.1,0-0.1c0,0,0.1,0,0.1,0C6.8,21,6.9,21.1,7,21.2
		C7,21.3,6.9,21.3,6.8,21.4C6.8,21.4,6.8,21.4,6.8,21.4z"/>
	<path class="st0" d="M6.8,21.4c0,0.1,0,0.2,0,0.3c-0.1,0.1-0.2,0.1-0.3,0.2c-0.1-0.2,0.1-0.2,0.1-0.3C6.6,21.5,6.7,21.5,6.8,21.4
		C6.8,21.4,6.8,21.4,6.8,21.4z"/>
	<path class="st0" d="M19.9,4.1c-0.1,0-0.2,0.1-0.2,0.1c-0.1-0.1-0.1-0.2-0.2-0.3c0,0,0.1-0.1,0.1-0.1C19.7,4,19.8,4,19.9,4.1z"/>
	<path class="st0" d="M17.3,11.1c-0.3,0-0.3-0.2-0.3-0.4c0,0,0.1-0.1,0.1-0.1c0,0,0.1,0.1,0.1,0.1C17.3,10.9,17.3,11,17.3,11.1
		L17.3,11.1z"/>
	<path class="st0" d="M6,15.1C6.1,15.1,6.1,15.1,6,15.1c0.2,0,0.3,0,0.3,0.2c0,0,0,0.1,0,0.1C6.2,15.3,6.2,15.3,6,15.1
		C6.1,15.2,6.1,15.2,6,15.1C6.1,15.1,6,15.1,6,15.1z"/>
	<path class="st0" d="M6.5,20.5c0,0.1,0.1,0.2,0.1,0.2c0,0-0.1,0-0.1,0.1c0-0.1-0.1-0.2-0.1-0.2C6.4,20.5,6.4,20.5,6.5,20.5z"/>
	<path class="st0" d="M11.7,7.3C11.7,7.3,11.7,7.3,11.7,7.3c0.1-0.1,0.2-0.2,0.2-0.3c0,0,0,0.1,0,0.1C12,7.2,11.8,7.3,11.7,7.3
		L11.7,7.3z"/>
	<path class="st0" d="M8.8,27.7c0-0.2,0.2-0.2,0.3-0.2l0,0C9.1,27.7,8.9,27.7,8.8,27.7L8.8,27.7z"/>
	<path class="st0" d="M17,10.2c0,0,0.1,0.1,0.1,0.1c0,0-0.1,0.1-0.1,0.1c0-0.1-0.1-0.1-0.1-0.2C17,10.3,17,10.3,17,10.2L17,10.2z"/>
	<path class="st0" d="M23.5,29.4c-0.2,0-0.3,0.1-0.3-0.2l0,0C23.3,29.3,23.4,29.4,23.5,29.4L23.5,29.4z"/>
	<path class="st0" d="M6.6,15.5c0,0.1,0.1,0.1,0.1,0.1c0,0-0.1,0.1-0.1,0.1c0,0-0.1-0.1-0.1-0.1C6.5,15.6,6.5,15.6,6.6,15.5z"/>
	<path class="st0" d="M23.2,29.2c-0.1,0-0.1-0.1-0.2-0.1c0,0,0-0.1,0-0.1C23.1,29.1,23.1,29.2,23.2,29.2L23.2,29.2z"/>
	<path class="st0" d="M23.5,29.4C23.5,29.4,23.6,29.5,23.5,29.4c0.1,0.1,0.1,0.1,0.2,0.2c0,0-0.1,0-0.1,0
		C23.6,29.6,23.5,29.6,23.5,29.4C23.5,29.5,23.5,29.5,23.5,29.4L23.5,29.4z"/>
	<path class="st0" d="M6.6,16.6C6.5,16.6,6.5,16.6,6.6,16.6c-0.1-0.1-0.1-0.1-0.2-0.2c0,0,0.1,0,0.1,0C6.5,16.4,6.6,16.4,6.6,16.6
		C6.6,16.5,6.6,16.6,6.6,16.6L6.6,16.6z"/>
	<path class="st0" d="M6.3,20.2c0,0,0,0.1,0,0.1C6.2,20.3,6.2,20.2,6.3,20.2C6.2,20.2,6.2,20.1,6.3,20.2C6.2,20.1,6.2,20.2,6.3,20.2
		z"/>
	<path class="st0" d="M20.2,32.8C20.3,32.8,20.3,32.8,20.2,32.8C20.3,32.8,20.3,32.9,20.2,32.8C20.3,32.9,20.2,32.9,20.2,32.8
		C20.2,32.8,20.2,32.8,20.2,32.8z"/>
	<path class="st0" d="M32.6,2.9c1.3,0,2.6,0,3.9,0c0.5,0,0.5,0,0.5,0.5c0,1.5,0,2.9,0,4.4c0,0.4-0.4,0.6-0.7,0.4
		c-0.1,0-0.1-0.2-0.1-0.3c0-1.2,0-2.3,0-3.5c0-0.1,0-0.2,0-0.3c0-0.2-0.1-0.3-0.3-0.3c-0.1,0-0.2,0-0.4,0c-2.2,0-4.4,0-6.6,0
		c-0.1,0-0.2,0-0.4,0c-0.2,0-0.3-0.1-0.2-0.2c0-0.1,0-0.2,0-0.3c0-0.2,0.1-0.2,0.3-0.3c0.1,0,0.2,0,0.3,0
		C30.1,2.9,31.3,2.9,32.6,2.9z M32.6,3.2c-1.2,0-2.4,0-3.7,0c-0.1,0-0.2,0-0.4,0c-0.1,0-0.1,0.1-0.1,0.2c0,0,0.1,0.1,0.1,0.1
		c0.1,0,0.3,0,0.4,0c2.2,0,4.4,0,6.6,0c0.7,0,0.7,0,0.7,0.7c0,1.1,0,2.2,0,3.3c0,0.1-0.1,0.4,0.2,0.4c0.2,0,0.2-0.2,0.2-0.4
		c0-1.3,0-2.7,0-4c0-0.4,0-0.4-0.4-0.4C35.1,3.2,33.9,3.2,32.6,3.2z"/>
	<path class="st0" d="M34.6,5.3c-2.4,0-4.8,0-7.2,0c-0.1,0-0.1,0-0.2,0c-0.4,0-0.6-0.2-0.4-0.6c0,0,0.1,0,0.1,0c0.2,0,0.3,0,0.5,0
		c2.5,0,4.9,0,7.4,0c0.1,0,0.2,0,0.3,0c0.3,0,0.3,0,0.3,0.3c0,1.4,0,2.9,0,4.3c0,0.4-0.1,0.5-0.3,0.5c-0.4,0-0.4,0-0.4-0.4
		C34.6,8,34.6,6.6,34.6,5.3c0.2,0,0.2,0.1,0.2,0.3c0,1.1,0,2.2,0,3.3c0,0.1,0,0.3,0,0.4c0,0.1,0.1,0.2,0.2,0.2
		c0.1,0,0.2-0.1,0.2-0.2c0-0.1,0-0.2,0-0.4c0-1,0-1.9,0-2.9c0-0.3,0-0.7,0-1c0-0.2-0.1-0.3-0.3-0.3c-0.1,0-0.1,0-0.2,0
		c-2.5,0-4.9,0-7.4,0c-0.1,0-0.2,0-0.3,0c-0.1,0-0.1,0.1-0.2,0.2c0.1,0,0.1,0.1,0.2,0.1c0.1,0,0.2,0,0.4,0c2.2,0,4.4,0,6.6,0
		c0.1,0,0.3,0,0.4,0C34.5,5.1,34.5,5.2,34.6,5.3z"/>
	<path class="st0" d="M29.5,6.7c1.1-0.1,2,1,2,2c0,1-1,2-2,2c-1.2-0.1-2-0.9-2.1-2.1C27.3,7.7,28.4,6.6,29.5,6.7z M29.4,10.5
		c0.9,0.1,1.8-0.8,1.8-1.8c0-0.9-0.8-1.8-1.8-1.8c-1,0-1.8,0.9-1.8,1.8C27.6,9.7,28.6,10.6,29.4,10.5z"/>
	<path class="st0" d="M32.5,7.1c-0.3-0.1-0.3-0.3-0.4-0.5c-0.1-0.2-0.2-0.3-0.4-0.3c-1.5,0-3,0-4.6,0c-0.2,0-0.3,0.1-0.4,0.3
		c-0.1,0.2-0.2,0.3-0.3,0.5l0,0c0.1-0.3,0.2-0.6,0.3-0.9c0-0.1,0.1-0.1,0.2-0.1c0.1,0,0.2,0,0.3,0c1.5,0,3.1,0,4.6,0
		c0.4,0,0.4,0,0.5,0.4C32.3,6.7,32.4,6.9,32.5,7.1C32.5,7.1,32.5,7.1,32.5,7.1z"/>
	<path class="st0" d="M26.4,10.2c-0.1,0-0.2,0-0.3-0.1c-0.2-0.1-0.4-0.2-0.6-0.3c-0.4-0.1-0.4-0.1-0.4-0.5c0-0.4,0-0.8,0-1.2
		c0-0.3,0-0.4,0.3-0.5c0.2,0,0.5-0.1,0.7-0.2l0,0c-0.2,0.1-0.3,0.3-0.5,0.4c-0.2,0.1-0.2,0.2-0.2,0.3c0,0.2,0,0.4,0,0.6
		c-0.1,0.5,0,1,0.6,1.1C26.2,9.9,26.3,10.1,26.4,10.2L26.4,10.2z"/>
	<path class="st0" d="M32.8,7.4c0.3,0.1,0.6,0.2,0.9,0.3c0.1,0,0.1,0.2,0.1,0.2c0,0.5,0,1.1,0,1.6c0,0.1-0.1,0.2-0.1,0.2
		c-0.3,0.1-0.7,0.2-1,0.3c0,0,0,0,0,0c0.2-0.1,0.4-0.3,0.6-0.4c0.2-0.1,0.3-0.2,0.3-0.4c0-0.2,0-0.3,0-0.5c0-0.3,0.1-0.6,0-0.8
		c-0.1-0.2-0.4-0.3-0.6-0.4C32.9,7.5,32.8,7.4,32.8,7.4L32.8,7.4z"/>
	<path class="st0" d="M32.7,10c-0.1,0.2-0.1,0.3-0.2,0.5c-0.1,0.1-0.2,0.3-0.2,0.4c-0.1,0.4-0.1,0.4-0.5,0.4c-1.6,0-3.1,0-4.7,0
		c-0.2,0-0.4,0-0.5-0.3c0-0.1,0-0.2,0-0.3c0.1,0.1,0.2,0.2,0.2,0.3c0,0.2,0.2,0.2,0.3,0.2c1.5,0,3.1,0,4.6,0c0.2,0,0.3-0.1,0.3-0.3
		C32.2,10.5,32.3,10.2,32.7,10L32.7,10z"/>
	<path class="st0" d="M31.9,8.7c0-0.5,0.1-0.6,0.6-0.6c0.5,0,0.7,0.2,0.6,0.7c0,0.1,0,0.2,0,0.3c0,0-0.1,0.1-0.1,0.1
		c-0.1,0-0.2,0-0.2-0.1c0-0.1,0-0.3,0-0.4c0-0.2-0.1-0.2-0.2-0.2c-0.1,0-0.2,0-0.3,0c-0.2,0-0.3,0.1-0.3,0.2c0,0.1,0,0.2,0,0.4
		C32,9,32,9,31.9,9c0,0-0.1-0.1-0.1-0.1C31.9,8.8,31.9,8.8,31.9,8.7z"/>
	<path class="st0" d="M26.5,8.1c0.1,0.1,0.4,0.1,0.4,0.2C27,8.5,27,8.7,27,9c0,0-0.1,0.1-0.1,0.1c0,0-0.1-0.1-0.1-0.1
		c0-0.1,0-0.1,0-0.2c0-0.4,0-0.4-0.5-0.4c-0.2,0-0.3,0.1-0.3,0.3C26.1,8.8,26.2,9,26,9c-0.3,0-0.1-0.3-0.1-0.5
		C25.8,8.2,26,8.1,26.5,8.1z"/>
	<path class="st0" d="M25,6.5c0.1-0.1,0.1-0.4,0.2-0.4c0.2-0.1,0.4,0,0.6,0c0,0,0.1,0.2,0,0.2c-0.1,0.1-0.2,0.3-0.3,0.4
		c-0.1,0.1-0.3,0.1-0.4,0.1C25.1,6.8,25.1,6.6,25,6.5z M25.6,6.4c-0.1,0-0.1-0.1-0.2,0c0,0-0.1,0.1-0.1,0.1c0,0,0.1,0.1,0.1,0.1
		C25.5,6.5,25.5,6.4,25.6,6.4z"/>
	<path class="st0" d="M33.9,6.5c0,0.1-0.1,0.3-0.1,0.3c-0.1,0-0.2,0-0.3-0.1c-0.1,0-0.1-0.1-0.2-0.1c-0.1-0.2-0.1-0.3-0.2-0.5
		c0.2,0,0.4,0,0.7,0C33.8,6.1,33.8,6.4,33.9,6.5z M33.6,6.4c-0.1,0-0.1-0.1-0.2-0.1c0,0-0.1,0.1-0.1,0.1c0,0.1,0.1,0.1,0.2,0.2
		C33.5,6.5,33.5,6.5,33.6,6.4z"/>
	<path class="st0" d="M25.6,10.8c0.1,0.1,0.2,0.1,0.2,0.2c0.1,0.2,0,0.3-0.2,0.3c-0.1,0-0.2,0-0.3,0c-0.2,0-0.3-0.1-0.3-0.3
		c0-0.1,0-0.1,0-0.2c0-0.1,0-0.2,0.1-0.3c0.1-0.1,0.3,0,0.3,0.2l0,0c-0.2,0-0.2,0.1-0.2,0.2c0,0.1,0.1,0.1,0.2,0.2
		C25.5,11,25.6,10.9,25.6,10.8C25.6,10.8,25.6,10.8,25.6,10.8z"/>
	<path class="st0" d="M33.4,10.7c0-0.2,0.2-0.2,0.3-0.2c0.1,0,0.1,0.1,0.1,0.2c0,0,0,0.1,0,0.2c0,0.1,0,0.3-0.1,0.4
		c-0.2,0-0.4,0-0.6,0c0,0-0.1-0.1-0.1-0.1c0.1-0.1,0-0.3,0.3-0.3l0,0c0,0.1,0,0.2,0.1,0.3c0.1-0.1,0.2-0.1,0.2-0.2
		C33.7,10.8,33.6,10.7,33.4,10.7L33.4,10.7z"/>
	<path class="st0" d="M32.8,7.4c-0.2,0-0.3-0.1-0.3-0.3l0,0C32.7,7.1,32.8,7.2,32.8,7.4L32.8,7.4z"/>
	<path class="st0" d="M26.1,7.4c0-0.2,0.1-0.3,0.3-0.3l0,0C26.4,7.3,26.3,7.4,26.1,7.4L26.1,7.4z"/>
	<path class="st0" d="M26.4,10.2c0,0,0.1,0.1,0.1,0.1c0,0,0,0.1,0,0.1c0,0-0.1-0.1-0.1-0.1C26.4,10.3,26.4,10.3,26.4,10.2L26.4,10.2
		z"/>
	<path class="st0" d="M25.5,10.7c0,0,0.1,0.1,0.1,0.1c0,0,0,0,0,0C25.5,10.8,25.5,10.8,25.5,10.7L25.5,10.7z"/>
	<path class="st0" d="M33.3,10.8c0,0,0.1-0.1,0.1-0.1c0,0,0,0,0,0C33.4,10.8,33.4,10.8,33.3,10.8C33.3,10.8,33.3,10.8,33.3,10.8z"/>
	<path class="st0" d="M30.2,8.1c0.3,0.2,0.4,0.5,0.3,0.9c-0.1,0.4-0.6,0.7-1,0.8c-0.4,0-0.9-0.3-1-0.7c-0.2-0.4,0-0.8,0.3-1.1
		c0,0,0.1,0,0.1-0.1c0,0,0,0.1,0,0.1c0,0.1-0.1,0.2-0.2,0.3c-0.2,0.5-0.1,0.9,0.3,1.2c0.3,0.2,1,0,1.2-0.4c0.1-0.2,0-0.5,0-0.7
		C30.2,8.3,30.2,8.2,30.2,8.1L30.2,8.1z"/>
	<path class="st0" d="M29.5,7.6c0.1,0,0.1,0,0.2,0c0.1,0,0.2,0.1,0.2,0.2c-0.1,0-0.2,0-0.3,0c-0.1,0-0.2,0-0.3,0c-0.1,0-0.2,0-0.2,0
		c0.1-0.1,0.1-0.1,0.2-0.2C29.3,7.6,29.4,7.6,29.5,7.6z"/>
	<path class="st0" d="M30.2,8.1c-0.1,0-0.1-0.1-0.2-0.1c0,0,0-0.1,0-0.1c0,0,0.1,0,0.1,0.1C30.2,8,30.2,8.1,30.2,8.1
		C30.2,8.1,30.2,8.1,30.2,8.1z"/>
</g>
</svg>
