<?xml version="1.0" encoding="utf-8"?>
<!-- Generator: Adobe Illustrator 24.2.0, SVG Export Plug-In . SVG Version: 6.00 Build 0)  -->
<svg version="1.1" id="Layer_1" xmlns="http://www.w3.org/2000/svg" xmlns:xlink="http://www.w3.org/1999/xlink" x="0px" y="0px"
	 viewBox="0 0 41 39.8" style="enable-background:new 0 0 41 39.8;" xml:space="preserve">
<style type="text/css">
	.st0{fill:#F8FCF9;}
	.st1{fill:#FFFFFF;}
</style>
<g>
	<g>
		<path class="st0" d="M30.3,15.6c1.8,0.2,3.4,0.7,4.8,1.6c2.2,1.4,3.8,3.3,4.5,5.8c0.3,1.1-0.1,2.1-1.1,2.4c-1,0.3-2-0.2-2.4-1.3
			c-0.9-2.6-2.6-4.2-5.3-4.8c-3.8-0.8-7.5,1.7-8.3,5.5c-0.7,3.6,1.8,7.3,5.6,7.9c1,0.2,2,0.1,3-0.1c0.8-0.2,1.5,0,2,0.7
			c0.4,0.6,0.5,1.2,0.2,1.9c-0.4,0.8-1.1,1-1.9,1.1c-4.3,0.6-7.9-0.8-10.6-4.2c0,0-0.1-0.1-0.1-0.1c0,0-0.1,0-0.1-0.1
			c-1.2,1.6-2.7,2.8-4.5,3.6c-2.2,0.9-4.5,1.1-6.9,0.6c-1-0.2-1.6-1.2-1.4-2.2c0.2-1,1.2-1.6,2.2-1.3c3.5,0.8,6.6-0.9,7.9-3.5
			c1.2-2.3,1.1-4.6-0.3-6.8c-1.4-2.2-3.6-3.2-6.2-3.1c-1.3,0-2.5,0.5-3.6,1.2c-0.2,0.1-0.4,0.2-0.6,0.2c-0.2,0-0.4-0.3-0.4-0.4
			c0-0.2,0.1-0.5,0.3-0.6c0.9-0.7,1.9-1.1,3-1.3c4.3-0.9,8.5,1.8,9.5,6c1,4.3-1.9,8.7-6.3,9.5c-1.2,0.2-2.3,0.2-3.5,0
			c-0.6-0.1-1,0.1-1.1,0.5c-0.1,0.4,0.2,0.8,0.7,0.9c4,0.9,8.1-0.8,10.3-4.2c0.5-0.7,0.8-0.7,1.3,0c2.1,3.5,6.3,5.3,10.2,4.4
			c0.7-0.2,1-0.5,0.9-1c-0.1-0.5-0.5-0.6-1.2-0.5c-2.8,0.5-5.4-0.1-7.4-2.2c-2.2-2.1-2.9-4.7-2.1-7.7c0.8-2.9,2.8-4.8,5.8-5.6
			c4.2-1.1,8.3,1.2,9.8,5.4c0.2,0.5,0.5,0.8,1,0.6c0.5-0.1,0.6-0.5,0.4-1.1c-1.1-3.7-4.6-6.4-8.5-6.6c-0.2,0-0.4,0-0.6,0
			c-0.7,0-0.9-0.4-0.6-1c0.6-0.9,1-1.9,1.2-3c0.5-3.1-0.3-5.9-2.4-8.2c-0.3-0.3-0.6-0.4-1-0.2c-0.3,0.2-0.4,0.5-0.3,0.8
			c0,0.2,0.2,0.3,0.3,0.5c0.5,0.8,1,1.5,1.5,2.3c0.2,0.3,0.2,0.7-0.2,0.9c-0.3,0.2-0.6,0-0.8-0.4c-0.4-0.7-0.9-1.4-1.4-2.1
			c-0.7-0.8-0.7-1.9,0-2.6c0.8-0.7,1.9-0.7,2.7,0.1c3,3,3.8,7.6,2,11.5C30.5,15.2,30.4,15.4,30.3,15.6z"/>
		<path class="st0" d="M11.1,15.4c-0.8-1.7-1.2-3.5-1-5.4c0.2-2.5,1.2-4.7,3-6.5c0.7-0.7,1.9-0.7,2.6,0c0.7,0.7,0.7,1.8,0,2.6
			c-1.8,2-2.4,4.2-1.6,6.8c0.8,2.5,2.7,4.1,5.3,4.7c4.4,1,8.6-2.6,8.3-7.1c0-0.1,0-0.2,0-0.3c0-0.4,0.1-0.7,0.5-0.7
			c0.4,0,0.6,0.2,0.6,0.6c0.1,1.5-0.1,3-0.8,4.4c-1.6,3.1-4.8,4.8-8.4,4.3c-3.3-0.4-6.1-2.9-6.8-6.2c-0.5-2.5,0.1-4.7,1.7-6.7
			c0.1-0.2,0.3-0.3,0.5-0.5c0.3-0.3,0.3-0.7,0-1c-0.3-0.3-0.7-0.3-1,0c-0.2,0.2-0.4,0.4-0.6,0.7c-2.4,2.9-2.8,7-0.9,10.3
			c0,0.1,0.1,0.2,0.1,0.2c0.3,0.5,0.1,0.9-0.6,0.9c-1.2,0-2.4,0.2-3.6,0.7c-2.8,1.1-4.8,3.1-5.7,6.1c-0.1,0.2,0,0.6,0.2,0.8
			c0.1,0.2,0.5,0.2,0.7,0.2c0.2-0.1,0.4-0.3,0.5-0.6c0.3-1,0.8-1.9,1.5-2.7c0.1-0.2,0.4-0.3,0.6-0.3c0.4,0,0.6,0.5,0.4,0.9
			c-0.6,0.8-1.1,1.7-1.4,2.7c-0.3,0.9-1.4,1.4-2.3,1C1.7,24.9,1.2,24,1.5,23c1.2-3.8,3.7-6.2,7.5-7.3c0.3-0.1,0.7-0.1,1-0.2
			C10.3,15.5,10.7,15.5,11.1,15.4z"/>
		<path class="st0" d="M20.1,12.5c2,0,3.5,0.4,4.8,1.1c0.3,0.2,0.5,0.4,0.4,0.8c-0.1,0.3-0.5,0.4-0.9,0.1c-2.4-1.3-4.8-1.4-7.2-0.1
			c-0.3,0.2-0.7,0.2-0.9-0.1c-0.2-0.3-0.1-0.6,0.4-0.8C17.8,12.8,19.2,12.5,20.1,12.5z"/>
		<path class="st0" d="M17.4,26.9c0,0.6-0.5,0.8-0.9,0.5c-1.2-0.6-2.1-1.5-2.8-2.6c-0.8-1.1-1.2-2.4-1.3-3.8c0-0.4,0.2-0.7,0.5-0.7
			c0.4,0,0.6,0.2,0.6,0.6c0.2,2.5,1.4,4.3,3.5,5.6C17.2,26.6,17.4,26.9,17.4,26.9z"/>
		<path class="st0" d="M28.8,21.3c-0.3,2.8-1.7,4.9-4.2,6.3c-0.3,0.2-0.6,0.1-0.8-0.2c-0.2-0.4,0-0.6,0.3-0.8c1.8-1,2.9-2.5,3.4-4.5
			c0.1-0.3,0.1-0.6,0.1-0.9c0.1-0.5,0.3-0.7,0.6-0.7C28.7,20.5,28.8,20.8,28.8,21.3z"/>
		<path class="st1" d="M20.5,19.2c-0.9,0-1.6,0.7-1.6,1.6s0.7,1.6,1.6,1.6c0.9,0,1.6-0.7,1.6-1.6S21.4,19.2,20.5,19.2z M20.5,21.4
			c-0.3,0-0.6-0.3-0.6-0.6s0.3-0.6,0.6-0.6c0.3,0,0.6,0.3,0.6,0.6S20.8,21.4,20.5,21.4z"/>
	</g>
</g>
</svg>
