<?xml version="1.0" encoding="utf-8"?>
<!-- Generator: Adobe Illustrator 24.2.0, SVG Export Plug-In . SVG Version: 6.00 Build 0)  -->
<svg version="1.1" id="Layer_1" xmlns="http://www.w3.org/2000/svg" xmlns:xlink="http://www.w3.org/1999/xlink" x="0px" y="0px"
	 viewBox="0 0 41.2 39.7" style="enable-background:new 0 0 41.2 39.7;" xml:space="preserve">
<style type="text/css">
	.st0{fill:#FDF6F4;}
</style>
<g>
	<path class="st0" d="M0,39.7c13.7,0,27.4,0,41.1,0c0-13.2,0-26.4,0-39.7c0,0,0.1,0,0.1,0c0,0.1,0,0.2,0,0.2c0,13.1,0,26.3,0,39.4
		c-13.6,0-27.3,0-40.9,0C0.2,39.7,0.1,39.7,0,39.7z"/>
	<path class="st0" d="M17.1,13.5c-0.3,0.1-0.6,0.2-0.8,0.3c-0.4,0.1-0.7,0-0.9-0.2c-0.2-0.3-0.2-0.6,0.1-0.9c0.7-0.9,1.3-1.8,2-2.7
		c0.4-0.5,0.8-1,1.2-1.6c0.1-0.1,0.1-0.3,0.1-0.4c0-1,0-2,0-3.1c0-0.5,0.2-0.7,0.7-0.9c1.1-0.3,2.3-0.7,3.4-0.9
		c3.1-0.7,6.2-0.5,9.2,0.3c0.7,0.2,1.3,0.4,2,0.6c0.4,0.1,0.6,0.4,0.6,0.8c0,1,0,2,0,3.1c0,0.2,0.1,0.4,0.2,0.5
		c0.9,1.3,1.8,2.5,2.8,3.8c0.1,0.2,0.3,0.4,0.4,0.5c0.2,0.3,0.2,0.6,0,0.9c-0.2,0.2-0.6,0.4-0.9,0.3c-0.3-0.1-0.5-0.2-0.8-0.3
		c0.1,0.4,0.3,0.7,0.4,1c0.2,1.2-0.3,2.2-1.5,2.8C35,17.5,35,17.6,35,17.9c0,0.8-0.2,1.6-0.6,2.4c-0.5,0.8-1.2,1.3-2,1.7
		c-0.5,0.2-1,0.5-1.5,0.8c-0.1,0-0.1,0.2-0.1,0.2c0,0.5,0,1,0,1.5c0,0.3,0.2,0.4,0.4,0.4c1.7,0.5,3.4,1,5.1,1.5
		c0.5,0.1,1,0.3,1.5,0.5c1.1,0.5,1.7,1.5,1.8,2.7c0,2.3,0,4.6,0,6.9c0,0.5-0.3,0.8-0.8,0.8c-0.1,0-0.2,0-0.3,0
		c-11.1,0-22.3,0-33.4,0c-0.2,0-0.3,0-0.5,0c-0.4,0-0.7-0.3-0.7-0.7c0-0.4,0.3-0.7,0.6-0.7c0.3,0,0.6,0,0.9,0c0.2,0,0.3-0.1,0.3-0.2
		c0-2.2,0-4.3,0-6.5c0-0.2-0.1-0.3-0.2-0.3c-0.4,0-0.8,0-1.2,0c-1.5,0-2.6-1.1-2.6-2.6c0-3.1,0-6.3,0-9.4c0-0.6,0.3-0.9,0.7-0.9
		c0.6,0,0.8,0.3,0.8,0.9c0,3.1,0,6.2,0,9.3c0,0.2,0,0.4,0.1,0.6c0.2,0.4,0.5,0.7,1,0.7c0.8,0,0.8,0,0.8-0.7c0-3.3,0-6.6,0-9.9
		c0-0.1,0-0.3,0-0.4c0.1-0.3,0.3-0.5,0.6-0.5c0.3-0.1,0.5,0,0.7,0.3c0.1,0.2,0.2,0.4,0.2,0.6c0,3.4,0,6.9,0,10.3
		c0,0.3,0.1,0.4,0.4,0.4c0.4,0,0.7,0,1.1,0c0.4,0,0.4,0,0.4-0.4c0-2.5,0-5,0-7.6c0-0.9,0-1.9,0-2.8c0-0.6,0.4-0.9,0.7-0.9
		c0.4,0,0.7,0.3,0.7,0.9c0,3.4,0,6.9,0,10.3c0,0.4,0,0.4,0.4,0.4c0.2,0,0.4,0,0.6,0c0.4-0.1,0.7-0.4,0.8-0.8c0-0.2,0-0.3,0-0.5
		c0-3.1,0-6.2,0-9.3c0-0.4,0.1-0.7,0.5-0.8c0.4-0.2,0.9,0.1,1,0.5c0,0.1,0,0.2,0,0.3c0,3.1,0,6.2,0,9.3c0,0.4-0.1,0.8-0.2,1.1
		c-0.4,1-1.2,1.4-2.2,1.5c-0.4,0-0.9,0-1.3,0c-0.2,0-0.3,0-0.3,0.3c0,2.1,0,4.3,0,6.4c0,0.2,0.1,0.3,0.3,0.3c1.4,0,2.8,0,4.2,0
		c0.3,0,0.3-0.1,0.3-0.3c0-1.9,0-3.9,0-5.8c0-1.2,0.5-2.1,1.5-2.7c0.5-0.3,1.1-0.5,1.7-0.6c1.7-0.5,3.4-1,5-1.4
		c0.3-0.1,0.4-0.2,0.4-0.6c0-0.5,0-0.9,0-1.4c0-0.1-0.1-0.3-0.2-0.3c-0.6-0.4-1.3-0.7-2-1.1c-1.3-0.8-2-2-2.1-3.5c0-0.1,0-0.2,0-0.3
		c0-0.2,0-0.3-0.3-0.4c-1.5-0.7-2-2.3-1.2-3.7C17,13.7,17,13.6,17.1,13.5z M26.7,12.2c-2.2,0-4.3,0.2-6.4,0.6
		c-0.3,0-0.3,0.2-0.3,0.4c0,0.5-0.2,0.8-0.7,0.8c-0.2,0-0.4,0.1-0.5,0.1c-0.5,0.2-0.7,0.7-0.6,1.2c0.1,0.5,0.5,0.8,1,0.9
		c0.6,0.1,0.8,0.3,0.8,0.9c0,0.3,0,0.6,0,0.9c0,1.1,0.4,2,1.5,2.5c1.5,0.8,2.9,1.6,4.4,2.4c0.6,0.3,1.2,0.3,1.8,0
		c0.4-0.2,0.8-0.4,1.2-0.7c1.1-0.6,2.2-1.2,3.3-1.8c0.7-0.4,1.1-1,1.3-1.8c0.1-0.5,0.1-1.1,0.1-1.6c0-0.5,0.3-0.8,0.7-0.8
		c0.7-0.1,1.1-0.5,1.1-1.1c0-0.6-0.4-1-1.1-1.1c-0.6-0.1-0.8-0.3-0.8-0.9c0-0.2-0.1-0.3-0.3-0.4C31,12.4,28.9,12.2,26.7,12.2z
		 M26.7,35.9c1.7,0,3.4,0,5.2,0c0.3,0,0.4-0.1,0.4-0.4c0-1.5,0-3.1,0-4.6c0-0.4,0.4-0.8,0.8-0.8c0.4,0,0.7,0.3,0.7,0.7
		c0,0.1,0,0.2,0,0.3c0,1.4,0,2.8,0,4.1c0,0.7-0.1,0.6,0.6,0.6c0.2,0,0.3-0.1,0.3-0.3c0-2.6,0-5.3,0-7.9c0-0.2,0-0.3-0.3-0.3
		c-1.3-0.4-2.6-0.7-3.8-1.1c-0.1,0-0.3,0.1-0.4,0.1c-0.9,0.9-1.8,1.8-2.7,2.6c-0.4,0.4-0.8,0.4-1.2,0c-0.8-0.8-1.7-1.6-2.5-2.5
		c-0.1-0.1-0.1-0.2-0.2-0.2c-0.1-0.1-0.2-0.1-0.4-0.1c-1.3,0.4-2.5,0.7-3.8,1.1c-0.3,0.1-0.4,0.2-0.4,0.5c0,2.5,0,5.1,0,7.6
		c0,0.6-0.1,0.5,0.5,0.5c0.3,0,0.4-0.1,0.4-0.4c0-1.5,0-3,0-4.6c0-0.3,0.1-0.6,0.4-0.7c0.5-0.2,1.1,0.2,1.1,0.8c0,1.5,0,3,0,4.6
		c0,0.2,0.1,0.3,0.3,0.3C23.3,35.9,25,35.9,26.7,35.9z M17.9,11.7c5.9-1.3,11.8-1.3,17.6,0c-0.6-0.9-1.3-1.8-2-2.7
		C33.5,9,33.4,9,33.3,9c-1.6-0.3-3.1-0.5-4.7-0.6c-2.5-0.1-5.1,0-7.6,0.4c-0.6,0.1-1.2,0.2-1.5,0.9c0,0,0,0,0,0.1
		C18.9,10.4,18.4,11.1,17.9,11.7z M20.2,7.4c4.4-0.7,8.6-0.7,13,0c0-0.7,0-1.4,0-2.1c0-0.1-0.1-0.2-0.2-0.2C32.7,5,32.3,5,32,4.9
		c-1.5-0.4-3-0.7-4.5-0.8C26,4,24.6,4.1,23.1,4.5c-0.9,0.2-1.8,0.4-2.7,0.7c-0.1,0-0.2,0.1-0.2,0.2C20.2,6,20.2,6.7,20.2,7.4z
		 M36.1,27.9C36,27.9,36,27.9,36.1,27.9c0,2.7,0,5.2,0,7.8c0,0.2,0.1,0.2,0.2,0.2c0.5,0,1,0,1.5,0c0.2,0,0.2-0.1,0.2-0.3
		c0-2,0-4,0-6c0-0.2-0.1-0.5-0.2-0.7C37.4,28.4,36.8,28,36.1,27.9z M17.3,27.8c-0.2,0.1-0.5,0.1-0.7,0.2c-0.7,0.3-1.3,0.8-1.3,1.7
		c0,2,0,3.9,0,5.9c0,0.2,0.1,0.3,0.3,0.3c0.5,0,0.9,0,1.4,0c0.3,0,0.4-0.1,0.3-0.3c0-2.5,0-4.9,0-7.4C17.4,28.1,17.4,28,17.3,27.8z
		 M29.2,23.7c-0.8,0.4-1.6,0.9-2.5,0.9c-0.9,0-1.7-0.5-2.5-0.9c0,0.4,0,0.8,0,1.2c0,0.2,0.1,0.3,0.2,0.4c0.7,0.7,1.4,1.3,2,2
		c0.2,0.2,0.3,0.2,0.6,0c0.6-0.6,1.2-1.1,1.7-1.7c0.2-0.2,0.5-0.4,0.5-0.6C29.3,24.6,29.2,24.2,29.2,23.7z M7.2,32.4
		c0,1.1,0,2.1,0,3.2c0,0.2,0,0.3,0.3,0.3c0.2,0,0.3-0.1,0.3-0.3c0-2.1,0-4.2,0-6.3c0-0.2,0-0.3-0.3-0.3c-0.3,0-0.3,0.1-0.3,0.3
		C7.2,30.3,7.2,31.4,7.2,32.4z"/>
	<path class="st0" d="M26.7,19.9c-0.4-0.1-0.8-0.2-1.1-0.4c-0.4-0.2-0.4-0.6-0.3-0.9c0.2-0.3,0.6-0.5,0.9-0.3c0.3,0.1,0.6,0.1,0.9,0
		c0.4-0.2,0.8,0,0.9,0.3c0.2,0.3,0.1,0.8-0.3,0.9C27.5,19.7,27.1,19.8,26.7,19.9z"/>
	<path class="st0" d="M23.7,16c-0.5,0-0.8-0.4-0.9-0.8c0-0.5,0.6-0.8,0.9-0.8c0.4,0,0.8,0.4,0.8,0.8C24.5,15.6,24.1,16,23.7,16z"/>
	<path class="st0" d="M29.7,16c-0.4,0-0.8-0.4-0.8-0.8c0-0.4,0.4-0.8,0.8-0.8c0.3,0,0.9,0.4,0.9,0.8C30.6,15.6,30.2,16,29.7,16z"/>
</g>
</svg>
