<?xml version="1.0" encoding="utf-8"?>
<!-- Generator: Adobe Illustrator 24.2.0, SVG Export Plug-In . SVG Version: 6.00 Build 0)  -->
<svg version="1.1" id="Layer_1" xmlns="http://www.w3.org/2000/svg" xmlns:xlink="http://www.w3.org/1999/xlink" x="0px" y="0px"
	 viewBox="0 0 41 39.8" style="enable-background:new 0 0 41 39.8;" xml:space="preserve">
<style type="text/css">
	.st0{fill:#FBFDF9;}
</style>
<g>
	<path class="st0" d="M15.2,9.5c3.4,0,6.9,0,10.3,0c0.5,0,1,0.1,1.4,0.4c0.4,0.3,0.7,0.8,0.6,1.3c0,0.9,0,1.8,0,2.7
		c0,0.4,0.1,0.5,0.5,0.5c1.6,0,3.2,0,4.8,0c0.7,0,1.3,0.2,1.8,0.7c1.3,1.3,2.5,2.6,3.8,3.9c0.4,0.4,0.6,0.9,0.6,1.4
		c0,2.2,0,4.5,0,6.7c0,1.1-0.6,1.8-1.7,1.8c-0.7,0-1.4,0-2.1,0c-0.3,0-0.4,0.1-0.5,0.4c-0.5,1.7-2.1,2.9-4,2.9c-2,0-3.6-1.1-4.1-2.9
		c-0.1-0.3-0.2-0.4-0.5-0.4c-3.4,0-6.7,0-10.1,0c-0.3,0-0.4,0.1-0.5,0.4c-0.5,1.7-2.1,2.8-4.1,2.8c-1.9,0-3.5-1.1-4-2.8
		c-0.1-0.3-0.3-0.4-0.6-0.4c-0.4,0-0.7,0-1.1,0C4.6,28.7,4,28.1,4,27.2c0-0.2,0-0.4,0-0.6c0-0.2,0.1-0.5,0-0.7
		c-0.1-0.3-0.4-0.1-0.7-0.1c-0.4-0.1-0.5-0.4-0.5-0.8c0-2.7,0-5.4,0-8.1c0-1.8,0-3.6,0-5.4c0-1.2,0.7-1.9,1.9-1.9
		C8.2,9.5,11.7,9.5,15.2,9.5z M15.1,24.6c3.5,0,7.1,0,10.6,0c0.4,0,0.5-0.1,0.5-0.5c0-4.2,0-8.5,0-12.7c0-0.7-0.1-0.8-0.8-0.8
		c-6.9,0-13.7,0-20.6,0c-0.7,0-0.8,0.1-0.8,0.8c0,4.2,0,8.5,0,12.7c0,0.4,0.1,0.5,0.5,0.5C8.1,24.6,11.6,24.6,15.1,24.6z M27.5,20
		c0,1.4,0,2.8,0,4.2c0,0.3,0.1,0.4,0.4,0.4c0.9,0,1.9,0,2.8,0c1.8,0,3.4,1.2,3.9,2.9c0.1,0.2,0.2,0.3,0.4,0.3c0.7,0,1.3,0,2,0
		c0.6,0,0.7-0.2,0.7-0.8c0-1.4,0-2.8,0-4.2c0-0.4-0.1-0.5-0.5-0.5c-1.8,0-3.6,0-5.4,0c-1.3,0-2-0.7-2-2c0-1.5,0-3.1,0-4.6
		c0-0.3-0.1-0.4-0.4-0.4c-0.5,0-1.1,0-1.6,0c-0.4,0-0.4,0.1-0.4,0.5C27.5,17.2,27.5,18.6,27.5,20z M34.6,21.3c0.9,0,1.8,0,2.7,0
		c0.1,0,0.4,0.1,0.4-0.1c0-0.6,0.2-1.2-0.4-1.7c-1-0.9-2-1.9-2.9-2.9c-0.8-0.9-1.7-1.4-2.9-1.2c0,0-0.1,0-0.1,0
		c-0.3,0-0.4,0.1-0.4,0.4c0,1.6,0,3.2,0,4.8c0,0.6,0.2,0.8,0.8,0.8C32.8,21.3,33.7,21.3,34.6,21.3z M33.5,28.2c0-0.1,0-0.3-0.1-0.4
		c-0.5-2.1-3.3-2.9-5-1.4c-1.1,1-1.2,2.6-0.2,3.7c0.6,0.6,1.3,0.9,2.1,1C31.9,31.2,33.5,29.9,33.5,28.2z M11.3,31
		c0.2,0,0.4,0,0.6-0.1c1.1-0.3,1.9-0.9,2.2-1.9c0.3-1,0-1.9-0.8-2.6c-1.1-1.1-3-1.1-4.2-0.1c-1.2,1-1.3,2.8-0.1,3.9
		C9.7,30.8,10.4,31,11.3,31z M20.5,27.8c0.6,0,1.2,0,1.8,0c0.2,0,0.3-0.1,0.3-0.3c0-0.5,0-1,0-1.5c0-0.2-0.1-0.3-0.3-0.3
		c-1.2,0-2.4,0-3.6,0c-0.2,0-0.3,0.1-0.3,0.3c0,0.5,0,1,0,1.5c0,0.2,0.1,0.3,0.3,0.3C19.4,27.8,19.9,27.8,20.5,27.8z M27.5,25.6
		c-1.2,0-2.3,0-3.4,0c-0.2,0-0.3,0.1-0.3,0.3c0,0.5,0,1,0,1.6c0,0.2,0.1,0.3,0.3,0.3c0.6,0,1.2,0,1.9,0c0.2,0,0.3,0,0.3-0.2
		C26.5,26.9,26.9,26.3,27.5,25.6z M14.2,25.6c0.2,0.3,0.4,0.4,0.5,0.6c0.1,0.2,0.3,0.4,0.4,0.6c0.1,1,0.8,1.1,1.6,1
		c0.1,0,0.2,0,0.3,0c0.2,0,0.3-0.1,0.3-0.3c0-0.5,0-1.1,0-1.6c0-0.2-0.1-0.3-0.3-0.3C16.1,25.6,15.2,25.6,14.2,25.6z M8.2,25.6
		c-0.6,0-1.1,0-1.6,0c-1.6,0-1.6,0-1.4,1.6c0,0.3,0.2,0.5,0.4,0.5c0.4,0,0.8,0,1.2,0c0.1,0,0.2-0.1,0.2-0.2
		C7.2,26.9,7.6,26.3,8.2,25.6z"/>
	<path class="st0" d="M30.5,29.9c-1,0-1.8-0.7-1.8-1.6c0-0.9,0.8-1.6,1.8-1.6c1,0,1.8,0.7,1.8,1.6C32.3,29.2,31.5,29.9,30.5,29.9z
		 M30.5,27.8c-0.4,0-0.6,0.2-0.6,0.5c0,0.3,0.3,0.6,0.6,0.5c0.3,0,0.6-0.2,0.6-0.5C31.1,28,30.8,27.8,30.5,27.8z"/>
	<path class="st0" d="M11.2,29.9c-1,0-1.8-0.7-1.8-1.6c0-0.9,0.8-1.7,1.8-1.6c1,0,1.8,0.7,1.8,1.6C13,29.2,12.2,29.9,11.2,29.9z
		 M11.3,28.9c0.3,0,0.6-0.2,0.6-0.5c0-0.3-0.2-0.5-0.6-0.5c-0.3,0-0.6,0.3-0.6,0.6C10.7,28.7,10.9,28.8,11.3,28.9z"/>
</g>
</svg>
