<?xml version="1.0" encoding="utf-8"?>
<!-- Generator: Adobe Illustrator 24.2.0, SVG Export Plug-In . SVG Version: 6.00 Build 0)  -->
<svg version="1.1" id="Layer_1" xmlns="http://www.w3.org/2000/svg" xmlns:xlink="http://www.w3.org/1999/xlink" x="0px" y="0px"
	 viewBox="0 0 41 39.8" style="enable-background:new 0 0 41 39.8;" xml:space="preserve">
<style type="text/css">
	.st0{fill:#FAFAFB;}
</style>
<g>
	<path class="st0" d="M16.8,32.3c-0.2,0.6-0.3,1.2-0.5,1.9c-0.3,0-0.6,0-1,0c0-0.3,0.1-0.7,0.1-1c0.1-0.3,0.1-0.6,0.2-0.9
		c-0.2,0-0.3,0-0.5,0c-4.4,0-8.9,0-13.3,0c-0.7,0-0.8-0.1-0.8-0.8c0-2.2,0-4.4,0-6.5c0-0.3,0.1-0.6,0.3-0.8c0.9-0.9,1.7-1.8,2.5-2.7
		c0.5-0.5,1.1-1.1,1.6-1.6c0.1-0.1,0.4-0.2,0.5-0.2c3.3,0,6.6,0,10,0c0.2,0,0.5,0.1,0.6,0.3c0.9,0.9,1.7,1.8,2.6,2.7
		c0.5,0.5,1,1,1.5,1.5c0.2,0.2,0.3,0.5,0.3,0.8c0,2.2,0,4.4,0,6.6c0,0.6-0.2,0.8-0.7,0.8C19.2,32.3,18.1,32.3,16.8,32.3z M11.2,25.3
		c-3,0-6,0-8.9,0c0,2,0,4,0,6c3,0,6,0,8.9,0C11.2,29.2,11.2,27.3,11.2,25.3z M14.9,20.8c-0.2,0-0.2,0-0.2,0c-2.7,0-5.4,0-8.1,0
		c-0.2,0-0.4,0.1-0.5,0.2c-0.5,0.5-1,1-1.5,1.5C4.1,23,3.5,23.6,3,24.1c0.1,0,0.1,0.1,0.1,0.1c2.7,0,5.5,0,8.2,0
		c0.1,0,0.2,0,0.3-0.1C12.7,23,13.8,21.9,14.9,20.8z M14.1,31.2c0-1.1,0-2.2,0-3.2c0-0.6,0.2-0.8,0.8-0.8c0.7,0,1.4,0,2.2,0
		c1.1,0,1.1,0,1.1,1.1c0,0.9,0,1.9,0,2.9c0.6,0,1.1,0,1.7,0c0-2,0-4,0-6c-2.5,0-4.9,0-7.4,0c0,2,0,4,0,6
		C13,31.2,13.5,31.2,14.1,31.2z M19.2,24.2c-1-1.1-2-2.1-3-3.2c-1,1.1-2,2.1-3,3.2C15.2,24.2,17.1,24.2,19.2,24.2z M17,31.2
		c0-1,0-1.9,0-2.9c-0.6,0-1.2,0-1.7,0c0,1,0,1.9,0,2.9C15.9,31.2,16.4,31.2,17,31.2z"/>
	<path class="st0" d="M23.9,13.8c0-1.1,0-2.1,0-3.1c0-0.6-0.2-0.8-0.6-1.1c-1-0.7-2-1.5-3-2.2c-1.6-1.2-3.2-2.4-4.8-3.6
		c-2.3-1.7-5.2-1.5-7.3,0.3C7.1,5,6,5.9,4.8,6.9C3.9,7.6,3,8.4,2.1,9.1C1.9,9.3,1.6,9.4,1.4,9.2C1.2,9.1,1.1,8.9,1.1,8.7
		c0-0.1,0.2-0.3,0.3-0.4c2-1.6,3.9-3.3,5.9-4.9c1.1-0.9,2.2-1.5,3.6-1.8c1.9-0.3,3.6,0.1,5.2,1.2c1.2,0.8,2.3,1.7,3.5,2.6
		c1.8,1.3,3.5,2.6,5.3,3.9c0.7-0.6,1.5-1.2,2.3-1.8c0.4-0.3,0.7-0.3,1.1,0c1,0.8,2,1.5,2.9,2.3c0.2,0.2,0.3,0.5,0.3,0.7
		c0,1.1,0,2.1,0,3.2c0.2,0,0.3,0,0.5,0c2.4,0,4.7,0,7.1,0c0.1,0,0.3,0,0.4,0c0.2,0.1,0.4,0.3,0.5,0.5c0.1,0.3-0.2,0.5-0.4,0.5
		c-0.1,0-0.3,0-0.4,0c-3.4,0-6.9,0-10.3,0c-0.5,0-0.9,0.1-1.4,0.1c-0.7,0-1.4-0.1-2.1-0.1c-7.8,0-15.5,0-23.3,0c-0.1,0-0.3,0-0.4,0
		c-0.3,0-0.5-0.2-0.5-0.5c0-0.3,0.2-0.5,0.5-0.5c0.2,0,0.3,0,0.5,0c7.1,0,14.2,0,21.2,0C23.5,13.8,23.6,13.8,23.9,13.8z M29.2,13.7
		c0.4,0,0.7,0,1.1,0c0-0.7-0.1-1.4,0-2.1c0.1-0.8-0.2-1.3-0.8-1.8c-0.6-0.4-1.2-1-1.8-1.4c-0.5,0.4-0.9,0.7-1.4,1.1
		c-0.4,0.3-1,0.6-1.2,1c-0.2,0.4-0.1,1-0.1,1.6c0,0.5,0,1.1,0,1.6c0.4,0,0.7,0,1,0c0-0.5,0-1,0-1.5c0-0.4,0.2-0.6,0.6-0.6
		c0.6,0,1.2,0,1.9,0c0.5,0,0.7,0.2,0.7,0.7C29.2,12.7,29.2,13.2,29.2,13.7z M28.1,13.7c0-0.3,0-0.7,0-1c-0.3,0-0.6,0-0.8,0
		c0,0.4,0,0.7,0,1C27.5,13.7,27.8,13.7,28.1,13.7z"/>
	<path class="st0" d="M26.6,22.2c0.4,0,0.8,0.1,1.1,0.1c0,0.7,0,1.4,0,2.1c-0.4,0-0.8,0-1.1,0C26.6,23.7,26.6,23,26.6,22.2z"/>
	<path class="st0" d="M28.1,16c0,0.7-0.1,1.4-0.1,2c-0.4,0-0.8,0-1.1,0c0-0.7,0.1-1.4,0.1-2.1C27.4,16,27.8,16,28.1,16z"/>
	<path class="st0" d="M26.8,19.2c0.4,0,0.8,0,1.1,0c0,0.7-0.1,1.4-0.1,2.1c-0.4,0-0.8,0-1.1-0.1C26.7,20.5,26.8,19.8,26.8,19.2z"/>
	<path class="st0" d="M17.8,38c0.2-0.3,0.3-0.6,0.4-0.9c0.7,0.2,1.3,0.3,1.9,0.4c0,0.3,0,0.6,0,1C19.3,38.6,18.6,38.4,17.8,38z"/>
	<path class="st0" d="M27.4,27.6c-0.4,0-0.7-0.1-1.1-0.1c0.1-0.7,0.1-1.4,0.2-2.1c0.3,0,0.7,0,1.1,0.1
		C27.5,26.2,27.5,26.9,27.4,27.6z"/>
	<path class="st0" d="M26.2,28.5c0.4,0.1,0.7,0.1,1,0.2c-0.1,0.7-0.2,1.4-0.3,2.1c-0.4-0.1-0.7-0.1-1-0.2
		C26,29.9,26.1,29.2,26.2,28.5z"/>
	<path class="st0" d="M25,33.5c0.2-0.7,0.5-1.3,0.7-1.9c0.3,0.1,0.6,0.2,1,0.3c-0.3,0.7-0.5,1.4-0.7,2.1
		C25.6,33.7,25.3,33.6,25,33.5z"/>
	<path class="st0" d="M17.4,36.6c-0.2,0.2-0.4,0.5-0.6,0.7c-0.6-0.6-1.1-1.2-1.3-2c0.3-0.1,0.6-0.2,0.9-0.3
		C16.8,35.6,17.1,36.1,17.4,36.6z"/>
	<path class="st0" d="M21.3,38.5c-0.1-0.4-0.2-0.8-0.2-1c0.6-0.3,1.1-0.5,1.7-0.8c0.2,0.2,0.4,0.5,0.6,0.9
		C22.7,37.9,22.1,38.2,21.3,38.5z"/>
	<path class="st0" d="M23.5,36c0.4-0.6,0.7-1.1,1.1-1.7c0.3,0.2,0.6,0.3,0.9,0.5c-0.4,0.6-0.8,1.2-1.2,1.8
		C24,36.5,23.7,36.3,23.5,36z"/>
</g>
</svg>
